M48
; DRILL file {KiCad 9.0.1} date 2025-04-18T23:06:30-0400
; FORMAT={-:-/ absolute / metric / decimal}
; #@! TF.CreationDate,2025-04-18T23:06:30-04:00
; #@! TF.GenerationSoftware,Kicad,Pcbnew,9.0.1
; #@! TF.FileFunction,Plated,1,2,PTH
FMAT,2
METRIC
; #@! TA.AperFunction,Plated,PTH,ComponentDrill
T1C0.800
; #@! TA.AperFunction,Plated,PTH,ComponentDrill
T2C1.000
%
G90
G05
T1
X139.7Y-150.285
X139.7Y-154.095
X140.95Y-152.19
X140.95Y-156.0
X142.2Y-150.285
X142.2Y-154.095
X143.45Y-152.19
X143.45Y-156.0
X144.7Y-150.285
X144.7Y-154.095
X145.95Y-152.19
X145.95Y-156.0
X147.2Y-150.285
X147.2Y-154.095
X148.45Y-152.19
X148.45Y-156.0
X149.7Y-150.285
X149.7Y-154.095
X150.95Y-152.19
X150.95Y-156.0
X152.2Y-150.285
X152.2Y-154.095
X153.45Y-152.19
X153.45Y-156.0
X154.7Y-150.285
X154.7Y-154.095
X155.95Y-152.19
X155.95Y-156.0
X157.2Y-150.285
X157.2Y-154.095
T2
X113.58Y-63.695
X116.12Y-63.695
X118.66Y-63.695
X121.2Y-63.695
X123.74Y-63.695
X126.28Y-63.695
X128.82Y-63.695
X131.36Y-63.695
X133.9Y-63.695
X136.44Y-63.695
X138.98Y-63.695
X141.52Y-63.695
X144.06Y-63.695
X146.6Y-63.695
X149.14Y-63.695
X151.68Y-63.695
X154.22Y-63.695
X156.76Y-63.695
X159.3Y-63.695
X161.84Y-63.695
X164.38Y-63.695
X166.92Y-63.695
X169.46Y-63.695
X172.0Y-63.695
X174.54Y-63.695
X177.08Y-63.695
X179.62Y-63.695
X182.16Y-63.695
X184.7Y-63.695
X187.24Y-63.695
M30
