G04 #@! TF.GenerationSoftware,KiCad,Pcbnew,9.0.1*
G04 #@! TF.CreationDate,2025-04-18T23:06:30-04:00*
G04 #@! TF.ProjectId,PCE_SCSI_Logic,5043455f-5343-4534-995f-4c6f6769632e,rev?*
G04 #@! TF.SameCoordinates,Original*
G04 #@! TF.FileFunction,Copper,L1,Top*
G04 #@! TF.FilePolarity,Positive*
%FSLAX46Y46*%
G04 Gerber Fmt 4.6, Leading zero omitted, Abs format (unit mm)*
G04 Created by KiCad (PCBNEW 9.0.1) date 2025-04-18 23:06:30*
%MOMM*%
%LPD*%
G01*
G04 APERTURE LIST*
G04 #@! TA.AperFunction,ComponentPad*
%ADD10C,1.200000*%
G04 #@! TD*
G04 #@! TA.AperFunction,ComponentPad*
%ADD11R,1.700000X1.700000*%
G04 #@! TD*
G04 #@! TA.AperFunction,ComponentPad*
%ADD12C,1.700000*%
G04 #@! TD*
G04 #@! TA.AperFunction,Conductor*
%ADD13C,0.076200*%
G04 #@! TD*
G04 #@! TA.AperFunction,Conductor*
%ADD14C,0.100000*%
G04 #@! TD*
G04 APERTURE END LIST*
D10*
G04 #@! TO.P,J2,1,Pin_1*
G04 #@! TO.N,/D0*
X139700000Y-150285000D03*
G04 #@! TO.P,J2,2,Pin_2*
G04 #@! TO.N,/~{SCSI_IO}*
X139700000Y-154095000D03*
G04 #@! TO.P,J2,3,Pin_3*
G04 #@! TO.N,/EXCK*
X140950000Y-152190000D03*
G04 #@! TO.P,J2,4,Pin_4*
G04 #@! TO.N,/GND*
X140950000Y-156000000D03*
G04 #@! TO.P,J2,5,Pin_5*
G04 #@! TO.N,/D1*
X142200000Y-150285000D03*
G04 #@! TO.P,J2,6,Pin_6*
G04 #@! TO.N,/GND*
X142200000Y-154095000D03*
G04 #@! TO.P,J2,7,Pin_7*
G04 #@! TO.N,/SBSO*
X143450000Y-152190000D03*
G04 #@! TO.P,J2,8,Pin_8*
G04 #@! TO.N,/AUDIO_L*
X143450000Y-156000000D03*
G04 #@! TO.P,J2,9,Pin_9*
G04 #@! TO.N,/D2*
X144700000Y-150285000D03*
G04 #@! TO.P,J2,10,Pin_10*
G04 #@! TO.N,/GND*
X144700000Y-154095000D03*
G04 #@! TO.P,J2,11,Pin_11*
G04 #@! TO.N,/PCM_DAT*
X145950000Y-152190000D03*
G04 #@! TO.P,J2,12,Pin_12*
G04 #@! TO.N,/AUDIO_R*
X145950000Y-156000000D03*
G04 #@! TO.P,J2,13,Pin_13*
G04 #@! TO.N,/D3*
X147200000Y-150285000D03*
G04 #@! TO.P,J2,14,Pin_14*
G04 #@! TO.N,/+9V*
X147200000Y-154095000D03*
G04 #@! TO.P,J2,15,Pin_15*
G04 #@! TO.N,/PCM_LRCK*
X148450000Y-152190000D03*
G04 #@! TO.P,J2,16,Pin_16*
G04 #@! TO.N,/+9V*
X148450000Y-156000000D03*
G04 #@! TO.P,J2,17,Pin_17*
G04 #@! TO.N,/D4*
X149700000Y-150285000D03*
G04 #@! TO.P,J2,18,Pin_18*
G04 #@! TO.N,/~{SCSI_BSY}*
X149700000Y-154095000D03*
G04 #@! TO.P,J2,19,Pin_19*
G04 #@! TO.N,/WFCK*
X150950000Y-152190000D03*
G04 #@! TO.P,J2,20,Pin_20*
G04 #@! TO.N,/~{SCSI_MSG}*
X150950000Y-156000000D03*
G04 #@! TO.P,J2,21,Pin_21*
G04 #@! TO.N,/D5*
X152200000Y-150285000D03*
G04 #@! TO.P,J2,22,Pin_22*
G04 #@! TO.N,/~{SCSI_CD}*
X152200000Y-154095000D03*
G04 #@! TO.P,J2,23,Pin_23*
G04 #@! TO.N,/~{SCSI_SEL}*
X153450000Y-152190000D03*
G04 #@! TO.P,J2,24,Pin_24*
G04 #@! TO.N,/SCOR*
X153450000Y-156000000D03*
G04 #@! TO.P,J2,25,Pin_25*
G04 #@! TO.N,/D6*
X154700000Y-150285000D03*
G04 #@! TO.P,J2,26,Pin_26*
G04 #@! TO.N,/PCM_BCLK*
X154700000Y-154095000D03*
G04 #@! TO.P,J2,27,Pin_27*
G04 #@! TO.N,/~{SCSI_RST}*
X155950000Y-152190000D03*
G04 #@! TO.P,J2,28,Pin_28*
G04 #@! TO.N,/~{SCSI_REQ}*
X155950000Y-156000000D03*
G04 #@! TO.P,J2,29,Pin_29*
G04 #@! TO.N,/D7*
X157200000Y-150285000D03*
G04 #@! TO.P,J2,30,Pin_30*
G04 #@! TO.N,/~{SCSI_ACK}*
X157200000Y-154095000D03*
G04 #@! TD*
D11*
G04 #@! TO.P,J1,1,Pin_1*
G04 #@! TO.N,/D0*
X113580000Y-63695000D03*
D12*
G04 #@! TO.P,J1,2,Pin_2*
G04 #@! TO.N,/~{SCSI_IO}*
X116120000Y-63695000D03*
G04 #@! TO.P,J1,3,Pin_3*
G04 #@! TO.N,/EXCK*
X118660000Y-63695000D03*
G04 #@! TO.P,J1,4,Pin_4*
G04 #@! TO.N,/GND*
X121200000Y-63695000D03*
G04 #@! TO.P,J1,5,Pin_5*
G04 #@! TO.N,/D1*
X123740000Y-63695000D03*
G04 #@! TO.P,J1,6,Pin_6*
G04 #@! TO.N,/GND*
X126280000Y-63695000D03*
G04 #@! TO.P,J1,7,Pin_7*
G04 #@! TO.N,/SBSO*
X128820000Y-63695000D03*
G04 #@! TO.P,J1,8,Pin_8*
G04 #@! TO.N,/AUDIO_L*
X131360000Y-63695000D03*
G04 #@! TO.P,J1,9,Pin_9*
G04 #@! TO.N,/D2*
X133900000Y-63695000D03*
G04 #@! TO.P,J1,10,Pin_10*
G04 #@! TO.N,/GND*
X136440000Y-63695000D03*
G04 #@! TO.P,J1,11,Pin_11*
G04 #@! TO.N,/PCM_DAT*
X138980000Y-63695000D03*
G04 #@! TO.P,J1,12,Pin_12*
G04 #@! TO.N,/AUDIO_R*
X141520000Y-63695000D03*
G04 #@! TO.P,J1,13,Pin_13*
G04 #@! TO.N,/D3*
X144060000Y-63695000D03*
G04 #@! TO.P,J1,14,Pin_14*
G04 #@! TO.N,/+9V*
X146600000Y-63695000D03*
G04 #@! TO.P,J1,15,Pin_15*
G04 #@! TO.N,/PCM_LRCK*
X149140000Y-63695000D03*
G04 #@! TO.P,J1,16,Pin_16*
G04 #@! TO.N,/+9V*
X151680000Y-63695000D03*
G04 #@! TO.P,J1,17,Pin_17*
G04 #@! TO.N,/D4*
X154220000Y-63695000D03*
G04 #@! TO.P,J1,18,Pin_18*
G04 #@! TO.N,/~{SCSI_BSY}*
X156760000Y-63695000D03*
G04 #@! TO.P,J1,19,Pin_19*
G04 #@! TO.N,/WFCK*
X159300000Y-63695000D03*
G04 #@! TO.P,J1,20,Pin_20*
G04 #@! TO.N,/~{SCSI_MSG}*
X161840000Y-63695000D03*
G04 #@! TO.P,J1,21,Pin_21*
G04 #@! TO.N,/D5*
X164380000Y-63695000D03*
G04 #@! TO.P,J1,22,Pin_22*
G04 #@! TO.N,/~{SCSI_CD}*
X166920000Y-63695000D03*
G04 #@! TO.P,J1,23,Pin_23*
G04 #@! TO.N,/~{SCSI_SEL}*
X169460000Y-63695000D03*
G04 #@! TO.P,J1,24,Pin_24*
G04 #@! TO.N,/SCOR*
X172000000Y-63695000D03*
G04 #@! TO.P,J1,25,Pin_25*
G04 #@! TO.N,/D6*
X174540000Y-63695000D03*
G04 #@! TO.P,J1,26,Pin_26*
G04 #@! TO.N,/PCM_BCLK*
X177080000Y-63695000D03*
G04 #@! TO.P,J1,27,Pin_27*
G04 #@! TO.N,/~{SCSI_RST}*
X179620000Y-63695000D03*
G04 #@! TO.P,J1,28,Pin_28*
G04 #@! TO.N,/~{SCSI_REQ}*
X182160000Y-63695000D03*
G04 #@! TO.P,J1,29,Pin_29*
G04 #@! TO.N,/D7*
X184700000Y-63695000D03*
G04 #@! TO.P,J1,30,Pin_30*
G04 #@! TO.N,/~{SCSI_ACK}*
X187240000Y-63695000D03*
G04 #@! TD*
D13*
G04 #@! TO.N,/D0*
X113580000Y-70330000D02*
X139700000Y-96450000D01*
X113580000Y-63695000D02*
X113580000Y-70330000D01*
X113580000Y-63695000D02*
X113450000Y-63825000D01*
X139700000Y-96450000D02*
X139700000Y-150285000D01*
D14*
G04 #@! TO.N,/D2*
X144700000Y-96700000D02*
X133900000Y-85900000D01*
X133900000Y-85900000D02*
X133900000Y-63695000D01*
X144700000Y-150285000D02*
X144700000Y-96700000D01*
G04 #@! TO.N,/D4*
X154220000Y-112930000D02*
X154220000Y-63695000D01*
X149700000Y-146950000D02*
X149400000Y-146650000D01*
X149400000Y-146650000D02*
X149400000Y-117750000D01*
X149700000Y-150285000D02*
X149700000Y-146950000D01*
X149400000Y-117750000D02*
X154220000Y-112930000D01*
G04 #@! TO.N,/D1*
X123740000Y-78940000D02*
X123740000Y-63695000D01*
X142200000Y-97400000D02*
X123740000Y-78940000D01*
X142200000Y-150285000D02*
X142200000Y-97400000D01*
G04 #@! TO.N,/D6*
X154700000Y-150285000D02*
X154700000Y-147050000D01*
X159500000Y-97400000D02*
X174540000Y-82360000D01*
X159500000Y-113350000D02*
X159500000Y-97400000D01*
X151250000Y-121600000D02*
X159500000Y-113350000D01*
X154700000Y-147050000D02*
X151250000Y-143600000D01*
X174540000Y-82360000D02*
X174540000Y-63695000D01*
X151250000Y-143600000D02*
X151250000Y-121600000D01*
G04 #@! TO.N,/D5*
X150400000Y-119350000D02*
X157350000Y-112400000D01*
X152200000Y-146600000D02*
X150400000Y-144800000D01*
X150400000Y-144800000D02*
X150400000Y-119350000D01*
X152200000Y-150285000D02*
X152200000Y-146600000D01*
X164380000Y-87620000D02*
X164380000Y-63695000D01*
X157350000Y-94650000D02*
X164380000Y-87620000D01*
X157350000Y-112400000D02*
X157350000Y-94650000D01*
G04 #@! TO.N,/D7*
X152209181Y-142259181D02*
X157200000Y-147250000D01*
X182321185Y-78723022D02*
X182318154Y-78726054D01*
X152200000Y-127737926D02*
X152209181Y-127747107D01*
X161000000Y-113510220D02*
X160912178Y-113653508D01*
X182279340Y-78791296D02*
X182276310Y-78794326D01*
X182318154Y-78726054D02*
X182318154Y-78727968D01*
X152197141Y-127872778D02*
X152209181Y-127922945D01*
X160912178Y-113653508D02*
X160909148Y-113656538D01*
X184700000Y-63695000D02*
X184700000Y-74841798D01*
X182276310Y-78794326D02*
X161000000Y-113508306D01*
X152550000Y-127297062D02*
X152406132Y-127531794D01*
X152209181Y-127853133D02*
X152197141Y-127872778D01*
X152209181Y-127747107D02*
X152209181Y-127853133D01*
X182318154Y-78727968D02*
X182279340Y-78791296D01*
X160909148Y-113656538D02*
X152550000Y-127295148D01*
X157200000Y-147250000D02*
X157200000Y-150285000D01*
X152406132Y-127531794D02*
X152200000Y-127737926D01*
X184700000Y-74841798D02*
X182321185Y-78723022D01*
X152209181Y-127922945D02*
X152209181Y-142259181D01*
X152550000Y-127295148D02*
X152550000Y-127297062D01*
X161000000Y-113508306D02*
X161000000Y-113510220D01*
G04 #@! TO.N,/D3*
X147200000Y-95600000D02*
X147200000Y-150285000D01*
X144060000Y-63695000D02*
X144060000Y-92460000D01*
X144060000Y-92460000D02*
X147200000Y-95600000D01*
G04 #@! TO.N,/EXCK*
X140950000Y-152190000D02*
X140950000Y-96965684D01*
X140950000Y-96965684D02*
X118660000Y-74675685D01*
X118660000Y-74675685D02*
X118660000Y-63695000D01*
G04 #@! TO.N,/~{SCSI_RST}*
X152000000Y-126400000D02*
X152000000Y-122000000D01*
X151776264Y-126623736D02*
X152000000Y-126400000D01*
X152000000Y-122000000D02*
X160300000Y-113700000D01*
X155950000Y-147200000D02*
X151776264Y-143026264D01*
X179620000Y-79680000D02*
X179620000Y-63695000D01*
X155950000Y-152190000D02*
X155950000Y-147200000D01*
X160300000Y-99000000D02*
X179620000Y-79680000D01*
X151776264Y-143026264D02*
X151776264Y-126623736D01*
X160300000Y-113700000D02*
X160300000Y-99000000D01*
G04 #@! TO.N,/PCM_LRCK*
X149140000Y-114960000D02*
X149140000Y-63695000D01*
X148450000Y-115650000D02*
X149140000Y-114960000D01*
X148450000Y-152190000D02*
X148450000Y-115650000D01*
G04 #@! TO.N,/~{SCSI_SEL}*
X169460000Y-85590000D02*
X158500000Y-96550000D01*
X150850000Y-120400000D02*
X150850000Y-144200000D01*
X150850000Y-144200000D02*
X153450000Y-146800000D01*
X158500000Y-112750000D02*
X150850000Y-120400000D01*
X153450000Y-146800000D02*
X153450000Y-152190000D01*
X158500000Y-96550000D02*
X158500000Y-112750000D01*
X169460000Y-63695000D02*
X169460000Y-85590000D01*
G04 #@! TO.N,/PCM_DAT*
X138980000Y-89480000D02*
X145950000Y-96450000D01*
X145950000Y-96450000D02*
X145950000Y-152190000D01*
X138980000Y-63695000D02*
X138980000Y-89480000D01*
G04 #@! TO.N,/WFCK*
X149900000Y-145400000D02*
X150950000Y-146450000D01*
X156100000Y-92632842D02*
X156100000Y-112450000D01*
X156100000Y-112450000D02*
X149900000Y-118650000D01*
X149900000Y-118650000D02*
X149900000Y-145400000D01*
X159300000Y-63695000D02*
X159300000Y-89432842D01*
X150950000Y-146450000D02*
X150950000Y-152190000D01*
X159300000Y-89432842D02*
X156100000Y-92632842D01*
G04 #@! TO.N,/~{SCSI_IO}*
X116120000Y-72520000D02*
X140600000Y-97000000D01*
X140600000Y-97000000D02*
X140600000Y-150800000D01*
X140600000Y-150800000D02*
X139700000Y-151700000D01*
X139700000Y-151700000D02*
X139700000Y-154095000D01*
X116120000Y-63695000D02*
X116120000Y-72520000D01*
G04 #@! TO.N,/~{SCSI_MSG}*
X150950000Y-153850000D02*
X151850000Y-152950000D01*
X151300000Y-150950000D02*
X151300000Y-146050000D01*
X151300000Y-146050000D02*
X150150000Y-144900000D01*
X150150000Y-119000000D02*
X156700000Y-112450000D01*
X150150000Y-144900000D02*
X150150000Y-119000000D01*
X151850000Y-152950000D02*
X151850000Y-151500000D01*
X150950000Y-156000000D02*
X150950000Y-153850000D01*
X156700000Y-93500000D02*
X161840000Y-88360000D01*
X151850000Y-151500000D02*
X151300000Y-150950000D01*
X156700000Y-112450000D02*
X156700000Y-93500000D01*
X161840000Y-88360000D02*
X161840000Y-63695000D01*
G04 #@! TO.N,/+9V*
X149400000Y-152900000D02*
X149400000Y-151300000D01*
X151680000Y-113770000D02*
X151680000Y-63695000D01*
X146600000Y-92750000D02*
X146600000Y-63695000D01*
X148100000Y-94250000D02*
X146600000Y-92750000D01*
X148100000Y-151050000D02*
X148100000Y-94250000D01*
X148800000Y-150700000D02*
X148800000Y-116650000D01*
X147200000Y-154095000D02*
X147200000Y-151950000D01*
X148450000Y-156000000D02*
X148450000Y-153850000D01*
X147200000Y-151950000D02*
X148100000Y-151050000D01*
X148800000Y-116650000D02*
X151680000Y-113770000D01*
X149400000Y-151300000D02*
X148800000Y-150700000D01*
X148450000Y-153850000D02*
X149400000Y-152900000D01*
G04 #@! TO.N,/SBSO*
X143450000Y-97200000D02*
X143450000Y-152190000D01*
X128820000Y-82570000D02*
X143450000Y-97200000D01*
X128820000Y-63695000D02*
X128820000Y-82570000D01*
G04 #@! TO.N,/SCOR*
X154400000Y-151450000D02*
X153800000Y-150850000D01*
X151050000Y-121050000D02*
X158950000Y-113150000D01*
X151050000Y-143850000D02*
X151050000Y-121050000D01*
X158950000Y-113150000D02*
X158950000Y-97100000D01*
X153800000Y-150850000D02*
X153800000Y-146600000D01*
X158950000Y-97100000D02*
X172000000Y-84050000D01*
X153450000Y-153900000D02*
X154400000Y-152950000D01*
X153800000Y-146600000D02*
X151050000Y-143850000D01*
X154400000Y-152950000D02*
X154400000Y-151450000D01*
X172000000Y-84050000D02*
X172000000Y-63695000D01*
X153450000Y-156000000D02*
X153450000Y-153900000D01*
G04 #@! TO.N,/GND*
X145600000Y-150750000D02*
X145600000Y-96650000D01*
X145600000Y-96650000D02*
X136450000Y-87500000D01*
X141900000Y-151650000D02*
X141900000Y-152800000D01*
X141250000Y-96982842D02*
X141250000Y-151000000D01*
X144700000Y-151650000D02*
X145600000Y-150750000D01*
X143100000Y-97450000D02*
X126280000Y-80630000D01*
X126280000Y-80630000D02*
X126280000Y-63695000D01*
X136450000Y-86100000D02*
X136440000Y-86090000D01*
X141250000Y-151000000D02*
X141900000Y-151650000D01*
X121200000Y-76932842D02*
X141250000Y-96982842D01*
X142200000Y-154095000D02*
X142200000Y-151800000D01*
X141900000Y-152800000D02*
X140950000Y-153750000D01*
X143100000Y-150900000D02*
X143100000Y-97450000D01*
X121200000Y-63695000D02*
X121200000Y-76932842D01*
X142200000Y-151800000D02*
X143100000Y-150900000D01*
X136450000Y-87500000D02*
X136450000Y-86100000D01*
X136440000Y-86090000D02*
X136440000Y-63695000D01*
X140950000Y-153750000D02*
X140950000Y-156000000D01*
X144700000Y-154095000D02*
X144700000Y-151650000D01*
G04 #@! TO.N,/AUDIO_R*
X145950000Y-153900000D02*
X146850000Y-153000000D01*
X146850000Y-151350000D02*
X146250000Y-150750000D01*
X145950000Y-156000000D02*
X145950000Y-153900000D01*
X146250000Y-95600000D02*
X141520000Y-90870000D01*
X141520000Y-90870000D02*
X141520000Y-63695000D01*
X146250000Y-150750000D02*
X146250000Y-95600000D01*
X146850000Y-153000000D02*
X146850000Y-151350000D01*
G04 #@! TO.N,/PCM_BCLK*
X151576264Y-143526264D02*
X151576264Y-121873736D01*
X177080000Y-65170000D02*
X177080000Y-63695000D01*
X151650000Y-143550000D02*
X151600000Y-143550000D01*
X159900000Y-98400000D02*
X177050000Y-81250000D01*
X159900000Y-113550000D02*
X159900000Y-98400000D01*
X155600000Y-151150000D02*
X155600000Y-147500000D01*
X177050000Y-65200000D02*
X177080000Y-65170000D01*
X155600000Y-147500000D02*
X151650000Y-143550000D01*
X151576264Y-121873736D02*
X159900000Y-113550000D01*
X154700000Y-152050000D02*
X155600000Y-151150000D01*
X151600000Y-143550000D02*
X151576264Y-143526264D01*
X154700000Y-154095000D02*
X154700000Y-152050000D01*
X177050000Y-81250000D02*
X177050000Y-65200000D01*
G04 #@! TO.N,/~{SCSI_BSY}*
X155500000Y-112400000D02*
X155500000Y-92150000D01*
X149650000Y-118250000D02*
X155500000Y-112400000D01*
X150650000Y-146600000D02*
X149650000Y-145600000D01*
X156760000Y-90890000D02*
X156760000Y-63695000D01*
X149700000Y-151900000D02*
X150650000Y-150950000D01*
X149650000Y-145600000D02*
X149650000Y-118250000D01*
X149700000Y-154095000D02*
X149700000Y-151900000D01*
X155500000Y-92150000D02*
X156760000Y-90890000D01*
X150650000Y-150950000D02*
X150650000Y-146600000D01*
G04 #@! TO.N,/AUDIO_L*
X131350000Y-84300000D02*
X131350000Y-66600000D01*
X143800000Y-150950000D02*
X143800000Y-96750000D01*
X144350000Y-151500000D02*
X143800000Y-150950000D01*
X131360000Y-66590000D02*
X131360000Y-63695000D01*
X143450000Y-153850000D02*
X144350000Y-152950000D01*
X144350000Y-152950000D02*
X144350000Y-151500000D01*
X131350000Y-66600000D02*
X131360000Y-66590000D01*
X143800000Y-96750000D02*
X131350000Y-84300000D01*
X143450000Y-156000000D02*
X143450000Y-153850000D01*
G04 #@! TO.N,/~{SCSI_CD}*
X153050000Y-151200000D02*
X153050000Y-146900000D01*
X150650000Y-144500000D02*
X150650000Y-119900000D01*
X166912500Y-86912500D02*
X166920000Y-86920000D01*
X150650000Y-119900000D02*
X157950000Y-112600000D01*
X152200000Y-152050000D02*
X153050000Y-151200000D01*
X166920000Y-86920000D02*
X166920000Y-63695000D01*
X157950000Y-95875000D02*
X166912500Y-86912500D01*
X153050000Y-146900000D02*
X150650000Y-144500000D01*
X152200000Y-154095000D02*
X152200000Y-152050000D01*
X157950000Y-112600000D02*
X157950000Y-95875000D01*
G04 #@! TO.N,/~{SCSI_ACK}*
X152441676Y-140740321D02*
X152449000Y-140732490D01*
X152449000Y-141733182D02*
X152449000Y-140959233D01*
X157200000Y-154095000D02*
X158100482Y-153194518D01*
X152410952Y-127906659D02*
X152449000Y-127844581D01*
X152564287Y-127656481D02*
X187240000Y-71080316D01*
X158100482Y-147384664D02*
X152449000Y-141733182D01*
X152449000Y-127771768D02*
X152564287Y-127656481D01*
X152449000Y-127844581D02*
X152449000Y-127771768D01*
X158100482Y-153194518D02*
X158100482Y-147384664D01*
X152449000Y-140959233D02*
X152441676Y-140740321D01*
X152449000Y-140732490D02*
X152449000Y-128065194D01*
X152449000Y-128065194D02*
X152410952Y-127906659D01*
X187240000Y-71080316D02*
X187240000Y-63695000D01*
G04 #@! TO.N,/~{SCSI_REQ}*
X151976264Y-142826264D02*
X156300000Y-147150000D01*
X160781919Y-113469973D02*
X160781919Y-113481394D01*
X156900000Y-152900000D02*
X155950000Y-153850000D01*
X160800000Y-113425463D02*
X160800000Y-113451892D01*
X160709148Y-113600123D02*
X152330877Y-127269935D01*
X182160000Y-78601364D02*
X182118154Y-78643212D01*
X182118154Y-78643212D02*
X182118153Y-78669641D01*
X155950000Y-153850000D02*
X155950000Y-156000000D01*
X151976264Y-127624548D02*
X151976264Y-142826264D01*
X182160000Y-63695000D02*
X182160000Y-78601364D01*
X156300000Y-147150000D02*
X156300000Y-150750000D01*
X160750996Y-113531847D02*
X160709148Y-113573696D01*
X160709148Y-113573696D02*
X160709148Y-113600123D01*
X182076310Y-78711484D02*
X182076310Y-78737911D01*
X182118153Y-78669641D02*
X182076310Y-78711484D01*
X152330877Y-127269935D02*
X151976264Y-127624548D01*
X182076310Y-78737911D02*
X160841846Y-113383617D01*
X156900000Y-151350000D02*
X156900000Y-152900000D01*
X156300000Y-150750000D02*
X156900000Y-151350000D01*
X160781919Y-113481394D02*
X160750996Y-113531847D01*
X160841846Y-113383617D02*
X160800000Y-113425463D01*
X160800000Y-113451892D02*
X160781919Y-113469973D01*
G04 #@! TD*
M02*
