G04 #@! TF.GenerationSoftware,KiCad,Pcbnew,9.0.1*
G04 #@! TF.CreationDate,2025-04-18T23:06:30-04:00*
G04 #@! TF.ProjectId,PCE_SCSI_Logic,5043455f-5343-4534-995f-4c6f6769632e,rev?*
G04 #@! TF.SameCoordinates,Original*
G04 #@! TF.FileFunction,Legend,Top*
G04 #@! TF.FilePolarity,Positive*
%FSLAX46Y46*%
G04 Gerber Fmt 4.6, Leading zero omitted, Abs format (unit mm)*
G04 Created by KiCad (PCBNEW 9.0.1) date 2025-04-18 23:06:30*
%MOMM*%
%LPD*%
G01*
G04 APERTURE LIST*
%ADD10C,0.150000*%
%ADD11C,0.180000*%
%ADD12C,0.250000*%
%ADD13C,0.100000*%
%ADD14C,0.120000*%
%ADD15C,1.200000*%
%ADD16R,1.700000X1.700000*%
%ADD17C,1.700000*%
G04 APERTURE END LIST*
D10*
X172538200Y-70820112D02*
X172595342Y-70648684D01*
X172595342Y-70648684D02*
X172595342Y-70362969D01*
X172595342Y-70362969D02*
X172538200Y-70248684D01*
X172538200Y-70248684D02*
X172481057Y-70191541D01*
X172481057Y-70191541D02*
X172366771Y-70134398D01*
X172366771Y-70134398D02*
X172252485Y-70134398D01*
X172252485Y-70134398D02*
X172138200Y-70191541D01*
X172138200Y-70191541D02*
X172081057Y-70248684D01*
X172081057Y-70248684D02*
X172023914Y-70362969D01*
X172023914Y-70362969D02*
X171966771Y-70591541D01*
X171966771Y-70591541D02*
X171909628Y-70705826D01*
X171909628Y-70705826D02*
X171852485Y-70762969D01*
X171852485Y-70762969D02*
X171738200Y-70820112D01*
X171738200Y-70820112D02*
X171623914Y-70820112D01*
X171623914Y-70820112D02*
X171509628Y-70762969D01*
X171509628Y-70762969D02*
X171452485Y-70705826D01*
X171452485Y-70705826D02*
X171395342Y-70591541D01*
X171395342Y-70591541D02*
X171395342Y-70305826D01*
X171395342Y-70305826D02*
X171452485Y-70134398D01*
X172481057Y-68934398D02*
X172538200Y-68991541D01*
X172538200Y-68991541D02*
X172595342Y-69162969D01*
X172595342Y-69162969D02*
X172595342Y-69277255D01*
X172595342Y-69277255D02*
X172538200Y-69448684D01*
X172538200Y-69448684D02*
X172423914Y-69562969D01*
X172423914Y-69562969D02*
X172309628Y-69620112D01*
X172309628Y-69620112D02*
X172081057Y-69677255D01*
X172081057Y-69677255D02*
X171909628Y-69677255D01*
X171909628Y-69677255D02*
X171681057Y-69620112D01*
X171681057Y-69620112D02*
X171566771Y-69562969D01*
X171566771Y-69562969D02*
X171452485Y-69448684D01*
X171452485Y-69448684D02*
X171395342Y-69277255D01*
X171395342Y-69277255D02*
X171395342Y-69162969D01*
X171395342Y-69162969D02*
X171452485Y-68991541D01*
X171452485Y-68991541D02*
X171509628Y-68934398D01*
X171395342Y-68191541D02*
X171395342Y-67962969D01*
X171395342Y-67962969D02*
X171452485Y-67848684D01*
X171452485Y-67848684D02*
X171566771Y-67734398D01*
X171566771Y-67734398D02*
X171795342Y-67677255D01*
X171795342Y-67677255D02*
X172195342Y-67677255D01*
X172195342Y-67677255D02*
X172423914Y-67734398D01*
X172423914Y-67734398D02*
X172538200Y-67848684D01*
X172538200Y-67848684D02*
X172595342Y-67962969D01*
X172595342Y-67962969D02*
X172595342Y-68191541D01*
X172595342Y-68191541D02*
X172538200Y-68305827D01*
X172538200Y-68305827D02*
X172423914Y-68420112D01*
X172423914Y-68420112D02*
X172195342Y-68477255D01*
X172195342Y-68477255D02*
X171795342Y-68477255D01*
X171795342Y-68477255D02*
X171566771Y-68420112D01*
X171566771Y-68420112D02*
X171452485Y-68305827D01*
X171452485Y-68305827D02*
X171395342Y-68191541D01*
X172595342Y-66477255D02*
X172023914Y-66877255D01*
X172595342Y-67162969D02*
X171395342Y-67162969D01*
X171395342Y-67162969D02*
X171395342Y-66705826D01*
X171395342Y-66705826D02*
X171452485Y-66591541D01*
X171452485Y-66591541D02*
X171509628Y-66534398D01*
X171509628Y-66534398D02*
X171623914Y-66477255D01*
X171623914Y-66477255D02*
X171795342Y-66477255D01*
X171795342Y-66477255D02*
X171909628Y-66534398D01*
X171909628Y-66534398D02*
X171966771Y-66591541D01*
X171966771Y-66591541D02*
X172023914Y-66705826D01*
X172023914Y-66705826D02*
X172023914Y-67162969D01*
X117038200Y-72820113D02*
X117095342Y-72648685D01*
X117095342Y-72648685D02*
X117095342Y-72362970D01*
X117095342Y-72362970D02*
X117038200Y-72248685D01*
X117038200Y-72248685D02*
X116981057Y-72191542D01*
X116981057Y-72191542D02*
X116866771Y-72134399D01*
X116866771Y-72134399D02*
X116752485Y-72134399D01*
X116752485Y-72134399D02*
X116638200Y-72191542D01*
X116638200Y-72191542D02*
X116581057Y-72248685D01*
X116581057Y-72248685D02*
X116523914Y-72362970D01*
X116523914Y-72362970D02*
X116466771Y-72591542D01*
X116466771Y-72591542D02*
X116409628Y-72705827D01*
X116409628Y-72705827D02*
X116352485Y-72762970D01*
X116352485Y-72762970D02*
X116238200Y-72820113D01*
X116238200Y-72820113D02*
X116123914Y-72820113D01*
X116123914Y-72820113D02*
X116009628Y-72762970D01*
X116009628Y-72762970D02*
X115952485Y-72705827D01*
X115952485Y-72705827D02*
X115895342Y-72591542D01*
X115895342Y-72591542D02*
X115895342Y-72305827D01*
X115895342Y-72305827D02*
X115952485Y-72134399D01*
X116981057Y-70934399D02*
X117038200Y-70991542D01*
X117038200Y-70991542D02*
X117095342Y-71162970D01*
X117095342Y-71162970D02*
X117095342Y-71277256D01*
X117095342Y-71277256D02*
X117038200Y-71448685D01*
X117038200Y-71448685D02*
X116923914Y-71562970D01*
X116923914Y-71562970D02*
X116809628Y-71620113D01*
X116809628Y-71620113D02*
X116581057Y-71677256D01*
X116581057Y-71677256D02*
X116409628Y-71677256D01*
X116409628Y-71677256D02*
X116181057Y-71620113D01*
X116181057Y-71620113D02*
X116066771Y-71562970D01*
X116066771Y-71562970D02*
X115952485Y-71448685D01*
X115952485Y-71448685D02*
X115895342Y-71277256D01*
X115895342Y-71277256D02*
X115895342Y-71162970D01*
X115895342Y-71162970D02*
X115952485Y-70991542D01*
X115952485Y-70991542D02*
X116009628Y-70934399D01*
X117038200Y-70477256D02*
X117095342Y-70305828D01*
X117095342Y-70305828D02*
X117095342Y-70020113D01*
X117095342Y-70020113D02*
X117038200Y-69905828D01*
X117038200Y-69905828D02*
X116981057Y-69848685D01*
X116981057Y-69848685D02*
X116866771Y-69791542D01*
X116866771Y-69791542D02*
X116752485Y-69791542D01*
X116752485Y-69791542D02*
X116638200Y-69848685D01*
X116638200Y-69848685D02*
X116581057Y-69905828D01*
X116581057Y-69905828D02*
X116523914Y-70020113D01*
X116523914Y-70020113D02*
X116466771Y-70248685D01*
X116466771Y-70248685D02*
X116409628Y-70362970D01*
X116409628Y-70362970D02*
X116352485Y-70420113D01*
X116352485Y-70420113D02*
X116238200Y-70477256D01*
X116238200Y-70477256D02*
X116123914Y-70477256D01*
X116123914Y-70477256D02*
X116009628Y-70420113D01*
X116009628Y-70420113D02*
X115952485Y-70362970D01*
X115952485Y-70362970D02*
X115895342Y-70248685D01*
X115895342Y-70248685D02*
X115895342Y-69962970D01*
X115895342Y-69962970D02*
X115952485Y-69791542D01*
X117095342Y-69277256D02*
X115895342Y-69277256D01*
X117209628Y-68991542D02*
X117209628Y-68077256D01*
X117095342Y-67791541D02*
X115895342Y-67791541D01*
X115895342Y-66991541D02*
X115895342Y-66762969D01*
X115895342Y-66762969D02*
X115952485Y-66648684D01*
X115952485Y-66648684D02*
X116066771Y-66534398D01*
X116066771Y-66534398D02*
X116295342Y-66477255D01*
X116295342Y-66477255D02*
X116695342Y-66477255D01*
X116695342Y-66477255D02*
X116923914Y-66534398D01*
X116923914Y-66534398D02*
X117038200Y-66648684D01*
X117038200Y-66648684D02*
X117095342Y-66762969D01*
X117095342Y-66762969D02*
X117095342Y-66991541D01*
X117095342Y-66991541D02*
X117038200Y-67105827D01*
X117038200Y-67105827D02*
X116923914Y-67220112D01*
X116923914Y-67220112D02*
X116695342Y-67277255D01*
X116695342Y-67277255D02*
X116295342Y-67277255D01*
X116295342Y-67277255D02*
X116066771Y-67220112D01*
X116066771Y-67220112D02*
X115952485Y-67105827D01*
X115952485Y-67105827D02*
X115895342Y-66991541D01*
X115562200Y-72928685D02*
X115562200Y-66368684D01*
D11*
G36*
X151527204Y-67817166D02*
G01*
X151613682Y-67871215D01*
X151653596Y-67916119D01*
X151696640Y-68007584D01*
X151696640Y-68193538D01*
X151657835Y-68266296D01*
X151625417Y-68294662D01*
X151547228Y-68323983D01*
X151303217Y-68293481D01*
X151216738Y-68239432D01*
X151176825Y-68194530D01*
X151133782Y-68103062D01*
X151133782Y-67917110D01*
X151172586Y-67844352D01*
X151205006Y-67815985D01*
X151283193Y-67786665D01*
X151527204Y-67817166D01*
G37*
G36*
X152467115Y-70094785D02*
G01*
X150820449Y-70094785D01*
X150820449Y-69365370D01*
X151239730Y-69365370D01*
X151249041Y-69399229D01*
X151270600Y-69426948D01*
X151301126Y-69444308D01*
X151318334Y-69448201D01*
X151696640Y-69495488D01*
X151696640Y-69873181D01*
X151698369Y-69890739D01*
X151711808Y-69923182D01*
X151736639Y-69948013D01*
X151769082Y-69961452D01*
X151804198Y-69961452D01*
X151836641Y-69948013D01*
X151861472Y-69923182D01*
X151874911Y-69890739D01*
X151876640Y-69873181D01*
X151876640Y-69517988D01*
X152232619Y-69562486D01*
X152250256Y-69562948D01*
X152284115Y-69553637D01*
X152311834Y-69532078D01*
X152329193Y-69501552D01*
X152333549Y-69466707D01*
X152324238Y-69432848D01*
X152302679Y-69405129D01*
X152272153Y-69387769D01*
X152254945Y-69383876D01*
X151876640Y-69336588D01*
X151876640Y-68958896D01*
X151874911Y-68941338D01*
X151861472Y-68908895D01*
X151836641Y-68884064D01*
X151804198Y-68870625D01*
X151769082Y-68870625D01*
X151736639Y-68884064D01*
X151711808Y-68908895D01*
X151698369Y-68941338D01*
X151696640Y-68958896D01*
X151696640Y-69314088D01*
X151340660Y-69269591D01*
X151323023Y-69269129D01*
X151289164Y-69278440D01*
X151261445Y-69299999D01*
X151244085Y-69330525D01*
X151239730Y-69365370D01*
X150820449Y-69365370D01*
X150820449Y-67894610D01*
X150953782Y-67894610D01*
X150953782Y-68123182D01*
X150955511Y-68140740D01*
X150956335Y-68142730D01*
X150956437Y-68144881D01*
X150962348Y-68161504D01*
X151019492Y-68282932D01*
X151022587Y-68288119D01*
X151023285Y-68290131D01*
X151026090Y-68293990D01*
X151028532Y-68298083D01*
X151030104Y-68299513D01*
X151033658Y-68304403D01*
X151090801Y-68368689D01*
X151095173Y-68372729D01*
X151096396Y-68374444D01*
X151100212Y-68377386D01*
X151103758Y-68380663D01*
X151105656Y-68381583D01*
X151110368Y-68385216D01*
X151224654Y-68456644D01*
X151240460Y-68464483D01*
X151242332Y-68464796D01*
X151243983Y-68465735D01*
X151261191Y-68469629D01*
X151546905Y-68505344D01*
X151564542Y-68505806D01*
X151568508Y-68504715D01*
X151572622Y-68504855D01*
X151589669Y-68500309D01*
X151703955Y-68457452D01*
X151715522Y-68451764D01*
X151717267Y-68451175D01*
X151718465Y-68450318D01*
X151719788Y-68449668D01*
X151721134Y-68448410D01*
X151731619Y-68440914D01*
X151788763Y-68390914D01*
X151797747Y-68381343D01*
X151799121Y-68380214D01*
X151799889Y-68379061D01*
X151800838Y-68378051D01*
X151801626Y-68376456D01*
X151808909Y-68365535D01*
X151866052Y-68258392D01*
X151872789Y-68242086D01*
X151873218Y-68237682D01*
X151874911Y-68233597D01*
X151876640Y-68216039D01*
X151876640Y-67987467D01*
X151874911Y-67969909D01*
X151874086Y-67967918D01*
X151873985Y-67965768D01*
X151868074Y-67949145D01*
X151839899Y-67889274D01*
X151913263Y-67916785D01*
X152067462Y-68038859D01*
X152110738Y-68087545D01*
X152153782Y-68179013D01*
X152153782Y-68387467D01*
X152155511Y-68405025D01*
X152168950Y-68437468D01*
X152193781Y-68462299D01*
X152226224Y-68475738D01*
X152261340Y-68475738D01*
X152293783Y-68462299D01*
X152318614Y-68437468D01*
X152332053Y-68405025D01*
X152333782Y-68387467D01*
X152333782Y-68158896D01*
X152332053Y-68141338D01*
X152331228Y-68139347D01*
X152331127Y-68137198D01*
X152325216Y-68120575D01*
X152268074Y-67999146D01*
X152264976Y-67993954D01*
X152264279Y-67991945D01*
X152261474Y-67988087D01*
X152259033Y-67983995D01*
X152257460Y-67982564D01*
X152253906Y-67977674D01*
X152196763Y-67913389D01*
X152191017Y-67908079D01*
X152185360Y-67902618D01*
X152013931Y-67766903D01*
X152007223Y-67762589D01*
X152005502Y-67760981D01*
X152002192Y-67759353D01*
X151999092Y-67757360D01*
X151996827Y-67756716D01*
X151989669Y-67753197D01*
X151761098Y-67667483D01*
X151758799Y-67666869D01*
X151757869Y-67666341D01*
X151750923Y-67664769D01*
X151744051Y-67662937D01*
X151742982Y-67662973D01*
X151740661Y-67662448D01*
X151283517Y-67605305D01*
X151265880Y-67604843D01*
X151261913Y-67605933D01*
X151257800Y-67605794D01*
X151240753Y-67610340D01*
X151126467Y-67653197D01*
X151114898Y-67658884D01*
X151113155Y-67659474D01*
X151111956Y-67660330D01*
X151110634Y-67660981D01*
X151109287Y-67662238D01*
X151098803Y-67669735D01*
X151041660Y-67719735D01*
X151032672Y-67729308D01*
X151031302Y-67730435D01*
X151030535Y-67731584D01*
X151029584Y-67732598D01*
X151028793Y-67734196D01*
X151021513Y-67745114D01*
X150964370Y-67852257D01*
X150957633Y-67868563D01*
X150957203Y-67872966D01*
X150955511Y-67877052D01*
X150953782Y-67894610D01*
X150820449Y-67894610D01*
X150820449Y-67323996D01*
X150953785Y-67323996D01*
X150960947Y-67358374D01*
X150980721Y-67387394D01*
X151010094Y-67406639D01*
X151044596Y-67413179D01*
X151062138Y-67411290D01*
X152262138Y-67161290D01*
X152278974Y-67156017D01*
X152284600Y-67152182D01*
X152290976Y-67149815D01*
X152298975Y-67142388D01*
X152307994Y-67136243D01*
X152311720Y-67130555D01*
X152316711Y-67125922D01*
X152321261Y-67115992D01*
X152327239Y-67106870D01*
X152328505Y-67100187D01*
X152331342Y-67093999D01*
X152331746Y-67083093D01*
X152333779Y-67072368D01*
X152332390Y-67065702D01*
X152332642Y-67058907D01*
X152328843Y-67048679D01*
X152326616Y-67037990D01*
X152322783Y-67032365D01*
X152320415Y-67025988D01*
X152312987Y-67017988D01*
X152306843Y-67008970D01*
X152301153Y-67005242D01*
X152296522Y-67000254D01*
X152281281Y-66991366D01*
X151081281Y-66441366D01*
X151064599Y-66435622D01*
X151029507Y-66434322D01*
X150996588Y-66446549D01*
X150970854Y-66470442D01*
X150956222Y-66502365D01*
X150954922Y-66537457D01*
X150967149Y-66570376D01*
X150991042Y-66596110D01*
X151006283Y-66604998D01*
X151957379Y-67040917D01*
X151025426Y-67235074D01*
X151008590Y-67240347D01*
X150979570Y-67260121D01*
X150960325Y-67289494D01*
X150953785Y-67323996D01*
X150820449Y-67323996D01*
X150820449Y-66300989D01*
X152467115Y-66300989D01*
X152467115Y-70094785D01*
G37*
D10*
X175195342Y-68305826D02*
X173995342Y-68305826D01*
X173995342Y-68305826D02*
X173995342Y-68020112D01*
X173995342Y-68020112D02*
X174052485Y-67848683D01*
X174052485Y-67848683D02*
X174166771Y-67734398D01*
X174166771Y-67734398D02*
X174281057Y-67677255D01*
X174281057Y-67677255D02*
X174509628Y-67620112D01*
X174509628Y-67620112D02*
X174681057Y-67620112D01*
X174681057Y-67620112D02*
X174909628Y-67677255D01*
X174909628Y-67677255D02*
X175023914Y-67734398D01*
X175023914Y-67734398D02*
X175138200Y-67848683D01*
X175138200Y-67848683D02*
X175195342Y-68020112D01*
X175195342Y-68020112D02*
X175195342Y-68305826D01*
X173995342Y-66591541D02*
X173995342Y-66820112D01*
X173995342Y-66820112D02*
X174052485Y-66934398D01*
X174052485Y-66934398D02*
X174109628Y-66991541D01*
X174109628Y-66991541D02*
X174281057Y-67105826D01*
X174281057Y-67105826D02*
X174509628Y-67162969D01*
X174509628Y-67162969D02*
X174966771Y-67162969D01*
X174966771Y-67162969D02*
X175081057Y-67105826D01*
X175081057Y-67105826D02*
X175138200Y-67048683D01*
X175138200Y-67048683D02*
X175195342Y-66934398D01*
X175195342Y-66934398D02*
X175195342Y-66705826D01*
X175195342Y-66705826D02*
X175138200Y-66591541D01*
X175138200Y-66591541D02*
X175081057Y-66534398D01*
X175081057Y-66534398D02*
X174966771Y-66477255D01*
X174966771Y-66477255D02*
X174681057Y-66477255D01*
X174681057Y-66477255D02*
X174566771Y-66534398D01*
X174566771Y-66534398D02*
X174509628Y-66591541D01*
X174509628Y-66591541D02*
X174452485Y-66705826D01*
X174452485Y-66705826D02*
X174452485Y-66934398D01*
X174452485Y-66934398D02*
X174509628Y-67048683D01*
X174509628Y-67048683D02*
X174566771Y-67105826D01*
X174566771Y-67105826D02*
X174681057Y-67162969D01*
X118766771Y-70591540D02*
X118766771Y-70191540D01*
X119395342Y-70020112D02*
X119395342Y-70591540D01*
X119395342Y-70591540D02*
X118195342Y-70591540D01*
X118195342Y-70591540D02*
X118195342Y-70020112D01*
X118195342Y-69620112D02*
X119395342Y-68820112D01*
X118195342Y-68820112D02*
X119395342Y-69620112D01*
X119281057Y-67677255D02*
X119338200Y-67734398D01*
X119338200Y-67734398D02*
X119395342Y-67905826D01*
X119395342Y-67905826D02*
X119395342Y-68020112D01*
X119395342Y-68020112D02*
X119338200Y-68191541D01*
X119338200Y-68191541D02*
X119223914Y-68305826D01*
X119223914Y-68305826D02*
X119109628Y-68362969D01*
X119109628Y-68362969D02*
X118881057Y-68420112D01*
X118881057Y-68420112D02*
X118709628Y-68420112D01*
X118709628Y-68420112D02*
X118481057Y-68362969D01*
X118481057Y-68362969D02*
X118366771Y-68305826D01*
X118366771Y-68305826D02*
X118252485Y-68191541D01*
X118252485Y-68191541D02*
X118195342Y-68020112D01*
X118195342Y-68020112D02*
X118195342Y-67905826D01*
X118195342Y-67905826D02*
X118252485Y-67734398D01*
X118252485Y-67734398D02*
X118309628Y-67677255D01*
X119395342Y-67162969D02*
X118195342Y-67162969D01*
X119395342Y-66477255D02*
X118709628Y-66991541D01*
X118195342Y-66477255D02*
X118881057Y-67162969D01*
X124145342Y-68305826D02*
X122945342Y-68305826D01*
X122945342Y-68305826D02*
X122945342Y-68020112D01*
X122945342Y-68020112D02*
X123002485Y-67848683D01*
X123002485Y-67848683D02*
X123116771Y-67734398D01*
X123116771Y-67734398D02*
X123231057Y-67677255D01*
X123231057Y-67677255D02*
X123459628Y-67620112D01*
X123459628Y-67620112D02*
X123631057Y-67620112D01*
X123631057Y-67620112D02*
X123859628Y-67677255D01*
X123859628Y-67677255D02*
X123973914Y-67734398D01*
X123973914Y-67734398D02*
X124088200Y-67848683D01*
X124088200Y-67848683D02*
X124145342Y-68020112D01*
X124145342Y-68020112D02*
X124145342Y-68305826D01*
X124145342Y-66477255D02*
X124145342Y-67162969D01*
X124145342Y-66820112D02*
X122945342Y-66820112D01*
X122945342Y-66820112D02*
X123116771Y-66934398D01*
X123116771Y-66934398D02*
X123231057Y-67048683D01*
X123231057Y-67048683D02*
X123288200Y-67162969D01*
X134445342Y-68305826D02*
X133245342Y-68305826D01*
X133245342Y-68305826D02*
X133245342Y-68020112D01*
X133245342Y-68020112D02*
X133302485Y-67848683D01*
X133302485Y-67848683D02*
X133416771Y-67734398D01*
X133416771Y-67734398D02*
X133531057Y-67677255D01*
X133531057Y-67677255D02*
X133759628Y-67620112D01*
X133759628Y-67620112D02*
X133931057Y-67620112D01*
X133931057Y-67620112D02*
X134159628Y-67677255D01*
X134159628Y-67677255D02*
X134273914Y-67734398D01*
X134273914Y-67734398D02*
X134388200Y-67848683D01*
X134388200Y-67848683D02*
X134445342Y-68020112D01*
X134445342Y-68020112D02*
X134445342Y-68305826D01*
X133359628Y-67162969D02*
X133302485Y-67105826D01*
X133302485Y-67105826D02*
X133245342Y-66991541D01*
X133245342Y-66991541D02*
X133245342Y-66705826D01*
X133245342Y-66705826D02*
X133302485Y-66591541D01*
X133302485Y-66591541D02*
X133359628Y-66534398D01*
X133359628Y-66534398D02*
X133473914Y-66477255D01*
X133473914Y-66477255D02*
X133588200Y-66477255D01*
X133588200Y-66477255D02*
X133759628Y-66534398D01*
X133759628Y-66534398D02*
X134445342Y-67220112D01*
X134445342Y-67220112D02*
X134445342Y-66477255D01*
X129288200Y-70820112D02*
X129345342Y-70648684D01*
X129345342Y-70648684D02*
X129345342Y-70362969D01*
X129345342Y-70362969D02*
X129288200Y-70248684D01*
X129288200Y-70248684D02*
X129231057Y-70191541D01*
X129231057Y-70191541D02*
X129116771Y-70134398D01*
X129116771Y-70134398D02*
X129002485Y-70134398D01*
X129002485Y-70134398D02*
X128888200Y-70191541D01*
X128888200Y-70191541D02*
X128831057Y-70248684D01*
X128831057Y-70248684D02*
X128773914Y-70362969D01*
X128773914Y-70362969D02*
X128716771Y-70591541D01*
X128716771Y-70591541D02*
X128659628Y-70705826D01*
X128659628Y-70705826D02*
X128602485Y-70762969D01*
X128602485Y-70762969D02*
X128488200Y-70820112D01*
X128488200Y-70820112D02*
X128373914Y-70820112D01*
X128373914Y-70820112D02*
X128259628Y-70762969D01*
X128259628Y-70762969D02*
X128202485Y-70705826D01*
X128202485Y-70705826D02*
X128145342Y-70591541D01*
X128145342Y-70591541D02*
X128145342Y-70305826D01*
X128145342Y-70305826D02*
X128202485Y-70134398D01*
X128716771Y-69220112D02*
X128773914Y-69048684D01*
X128773914Y-69048684D02*
X128831057Y-68991541D01*
X128831057Y-68991541D02*
X128945342Y-68934398D01*
X128945342Y-68934398D02*
X129116771Y-68934398D01*
X129116771Y-68934398D02*
X129231057Y-68991541D01*
X129231057Y-68991541D02*
X129288200Y-69048684D01*
X129288200Y-69048684D02*
X129345342Y-69162969D01*
X129345342Y-69162969D02*
X129345342Y-69620112D01*
X129345342Y-69620112D02*
X128145342Y-69620112D01*
X128145342Y-69620112D02*
X128145342Y-69220112D01*
X128145342Y-69220112D02*
X128202485Y-69105827D01*
X128202485Y-69105827D02*
X128259628Y-69048684D01*
X128259628Y-69048684D02*
X128373914Y-68991541D01*
X128373914Y-68991541D02*
X128488200Y-68991541D01*
X128488200Y-68991541D02*
X128602485Y-69048684D01*
X128602485Y-69048684D02*
X128659628Y-69105827D01*
X128659628Y-69105827D02*
X128716771Y-69220112D01*
X128716771Y-69220112D02*
X128716771Y-69620112D01*
X129231057Y-67734398D02*
X129288200Y-67791541D01*
X129288200Y-67791541D02*
X129345342Y-67962969D01*
X129345342Y-67962969D02*
X129345342Y-68077255D01*
X129345342Y-68077255D02*
X129288200Y-68248684D01*
X129288200Y-68248684D02*
X129173914Y-68362969D01*
X129173914Y-68362969D02*
X129059628Y-68420112D01*
X129059628Y-68420112D02*
X128831057Y-68477255D01*
X128831057Y-68477255D02*
X128659628Y-68477255D01*
X128659628Y-68477255D02*
X128431057Y-68420112D01*
X128431057Y-68420112D02*
X128316771Y-68362969D01*
X128316771Y-68362969D02*
X128202485Y-68248684D01*
X128202485Y-68248684D02*
X128145342Y-68077255D01*
X128145342Y-68077255D02*
X128145342Y-67962969D01*
X128145342Y-67962969D02*
X128202485Y-67791541D01*
X128202485Y-67791541D02*
X128259628Y-67734398D01*
X128145342Y-66991541D02*
X128145342Y-66762969D01*
X128145342Y-66762969D02*
X128202485Y-66648684D01*
X128202485Y-66648684D02*
X128316771Y-66534398D01*
X128316771Y-66534398D02*
X128545342Y-66477255D01*
X128545342Y-66477255D02*
X128945342Y-66477255D01*
X128945342Y-66477255D02*
X129173914Y-66534398D01*
X129173914Y-66534398D02*
X129288200Y-66648684D01*
X129288200Y-66648684D02*
X129345342Y-66762969D01*
X129345342Y-66762969D02*
X129345342Y-66991541D01*
X129345342Y-66991541D02*
X129288200Y-67105827D01*
X129288200Y-67105827D02*
X129173914Y-67220112D01*
X129173914Y-67220112D02*
X128945342Y-67277255D01*
X128945342Y-67277255D02*
X128545342Y-67277255D01*
X128545342Y-67277255D02*
X128316771Y-67220112D01*
X128316771Y-67220112D02*
X128202485Y-67105827D01*
X128202485Y-67105827D02*
X128145342Y-66991541D01*
X180188200Y-74248684D02*
X180245342Y-74077256D01*
X180245342Y-74077256D02*
X180245342Y-73791541D01*
X180245342Y-73791541D02*
X180188200Y-73677256D01*
X180188200Y-73677256D02*
X180131057Y-73620113D01*
X180131057Y-73620113D02*
X180016771Y-73562970D01*
X180016771Y-73562970D02*
X179902485Y-73562970D01*
X179902485Y-73562970D02*
X179788200Y-73620113D01*
X179788200Y-73620113D02*
X179731057Y-73677256D01*
X179731057Y-73677256D02*
X179673914Y-73791541D01*
X179673914Y-73791541D02*
X179616771Y-74020113D01*
X179616771Y-74020113D02*
X179559628Y-74134398D01*
X179559628Y-74134398D02*
X179502485Y-74191541D01*
X179502485Y-74191541D02*
X179388200Y-74248684D01*
X179388200Y-74248684D02*
X179273914Y-74248684D01*
X179273914Y-74248684D02*
X179159628Y-74191541D01*
X179159628Y-74191541D02*
X179102485Y-74134398D01*
X179102485Y-74134398D02*
X179045342Y-74020113D01*
X179045342Y-74020113D02*
X179045342Y-73734398D01*
X179045342Y-73734398D02*
X179102485Y-73562970D01*
X180131057Y-72362970D02*
X180188200Y-72420113D01*
X180188200Y-72420113D02*
X180245342Y-72591541D01*
X180245342Y-72591541D02*
X180245342Y-72705827D01*
X180245342Y-72705827D02*
X180188200Y-72877256D01*
X180188200Y-72877256D02*
X180073914Y-72991541D01*
X180073914Y-72991541D02*
X179959628Y-73048684D01*
X179959628Y-73048684D02*
X179731057Y-73105827D01*
X179731057Y-73105827D02*
X179559628Y-73105827D01*
X179559628Y-73105827D02*
X179331057Y-73048684D01*
X179331057Y-73048684D02*
X179216771Y-72991541D01*
X179216771Y-72991541D02*
X179102485Y-72877256D01*
X179102485Y-72877256D02*
X179045342Y-72705827D01*
X179045342Y-72705827D02*
X179045342Y-72591541D01*
X179045342Y-72591541D02*
X179102485Y-72420113D01*
X179102485Y-72420113D02*
X179159628Y-72362970D01*
X180188200Y-71905827D02*
X180245342Y-71734399D01*
X180245342Y-71734399D02*
X180245342Y-71448684D01*
X180245342Y-71448684D02*
X180188200Y-71334399D01*
X180188200Y-71334399D02*
X180131057Y-71277256D01*
X180131057Y-71277256D02*
X180016771Y-71220113D01*
X180016771Y-71220113D02*
X179902485Y-71220113D01*
X179902485Y-71220113D02*
X179788200Y-71277256D01*
X179788200Y-71277256D02*
X179731057Y-71334399D01*
X179731057Y-71334399D02*
X179673914Y-71448684D01*
X179673914Y-71448684D02*
X179616771Y-71677256D01*
X179616771Y-71677256D02*
X179559628Y-71791541D01*
X179559628Y-71791541D02*
X179502485Y-71848684D01*
X179502485Y-71848684D02*
X179388200Y-71905827D01*
X179388200Y-71905827D02*
X179273914Y-71905827D01*
X179273914Y-71905827D02*
X179159628Y-71848684D01*
X179159628Y-71848684D02*
X179102485Y-71791541D01*
X179102485Y-71791541D02*
X179045342Y-71677256D01*
X179045342Y-71677256D02*
X179045342Y-71391541D01*
X179045342Y-71391541D02*
X179102485Y-71220113D01*
X180245342Y-70705827D02*
X179045342Y-70705827D01*
X180359628Y-70420113D02*
X180359628Y-69505827D01*
X180245342Y-68534398D02*
X179673914Y-68934398D01*
X180245342Y-69220112D02*
X179045342Y-69220112D01*
X179045342Y-69220112D02*
X179045342Y-68762969D01*
X179045342Y-68762969D02*
X179102485Y-68648684D01*
X179102485Y-68648684D02*
X179159628Y-68591541D01*
X179159628Y-68591541D02*
X179273914Y-68534398D01*
X179273914Y-68534398D02*
X179445342Y-68534398D01*
X179445342Y-68534398D02*
X179559628Y-68591541D01*
X179559628Y-68591541D02*
X179616771Y-68648684D01*
X179616771Y-68648684D02*
X179673914Y-68762969D01*
X179673914Y-68762969D02*
X179673914Y-69220112D01*
X180188200Y-68077255D02*
X180245342Y-67905827D01*
X180245342Y-67905827D02*
X180245342Y-67620112D01*
X180245342Y-67620112D02*
X180188200Y-67505827D01*
X180188200Y-67505827D02*
X180131057Y-67448684D01*
X180131057Y-67448684D02*
X180016771Y-67391541D01*
X180016771Y-67391541D02*
X179902485Y-67391541D01*
X179902485Y-67391541D02*
X179788200Y-67448684D01*
X179788200Y-67448684D02*
X179731057Y-67505827D01*
X179731057Y-67505827D02*
X179673914Y-67620112D01*
X179673914Y-67620112D02*
X179616771Y-67848684D01*
X179616771Y-67848684D02*
X179559628Y-67962969D01*
X179559628Y-67962969D02*
X179502485Y-68020112D01*
X179502485Y-68020112D02*
X179388200Y-68077255D01*
X179388200Y-68077255D02*
X179273914Y-68077255D01*
X179273914Y-68077255D02*
X179159628Y-68020112D01*
X179159628Y-68020112D02*
X179102485Y-67962969D01*
X179102485Y-67962969D02*
X179045342Y-67848684D01*
X179045342Y-67848684D02*
X179045342Y-67562969D01*
X179045342Y-67562969D02*
X179102485Y-67391541D01*
X179045342Y-67048684D02*
X179045342Y-66362970D01*
X180245342Y-66705827D02*
X179045342Y-66705827D01*
X178712200Y-74357256D02*
X178712200Y-66368684D01*
X185272428Y-74398923D02*
X185384756Y-74257377D01*
X185384756Y-74257377D02*
X185482476Y-73988894D01*
X185482476Y-73988894D02*
X185467868Y-73861956D01*
X185467868Y-73861956D02*
X185433715Y-73788715D01*
X185433715Y-73788715D02*
X185345865Y-73695931D01*
X185345865Y-73695931D02*
X185238472Y-73656843D01*
X185238472Y-73656843D02*
X185111535Y-73671451D01*
X185111535Y-73671451D02*
X185038294Y-73705604D01*
X185038294Y-73705604D02*
X184945509Y-73793454D01*
X184945509Y-73793454D02*
X184813636Y-73988696D01*
X184813636Y-73988696D02*
X184720852Y-74076546D01*
X184720852Y-74076546D02*
X184647611Y-74110699D01*
X184647611Y-74110699D02*
X184520673Y-74125307D01*
X184520673Y-74125307D02*
X184413280Y-74086219D01*
X184413280Y-74086219D02*
X184325431Y-73993435D01*
X184325431Y-73993435D02*
X184291278Y-73920194D01*
X184291278Y-73920194D02*
X184276669Y-73793256D01*
X184276669Y-73793256D02*
X184374389Y-73524773D01*
X184374389Y-73524773D02*
X184486718Y-73383227D01*
X185863683Y-72607388D02*
X185897836Y-72680628D01*
X185897836Y-72680628D02*
X185892900Y-72861263D01*
X185892900Y-72861263D02*
X185853812Y-72968656D01*
X185853812Y-72968656D02*
X185741484Y-73110202D01*
X185741484Y-73110202D02*
X185595002Y-73178508D01*
X185595002Y-73178508D02*
X185468065Y-73193116D01*
X185468065Y-73193116D02*
X185233734Y-73168637D01*
X185233734Y-73168637D02*
X185072644Y-73110005D01*
X185072644Y-73110005D02*
X184877401Y-72978132D01*
X184877401Y-72978132D02*
X184789551Y-72885348D01*
X184789551Y-72885348D02*
X184721246Y-72738866D01*
X184721246Y-72738866D02*
X184726181Y-72558232D01*
X184726181Y-72558232D02*
X184765269Y-72450838D01*
X184765269Y-72450838D02*
X184877598Y-72309292D01*
X184877598Y-72309292D02*
X184950839Y-72275140D01*
X186073732Y-72197358D02*
X186186061Y-72055812D01*
X186186061Y-72055812D02*
X186283781Y-71787328D01*
X186283781Y-71787328D02*
X186269172Y-71660391D01*
X186269172Y-71660391D02*
X186235019Y-71587150D01*
X186235019Y-71587150D02*
X186147170Y-71494365D01*
X186147170Y-71494365D02*
X186039776Y-71455277D01*
X186039776Y-71455277D02*
X185912839Y-71469886D01*
X185912839Y-71469886D02*
X185839598Y-71504039D01*
X185839598Y-71504039D02*
X185746813Y-71591888D01*
X185746813Y-71591888D02*
X185614941Y-71787131D01*
X185614941Y-71787131D02*
X185522156Y-71874980D01*
X185522156Y-71874980D02*
X185448915Y-71909133D01*
X185448915Y-71909133D02*
X185321978Y-71923742D01*
X185321978Y-71923742D02*
X185214584Y-71884654D01*
X185214584Y-71884654D02*
X185126735Y-71791869D01*
X185126735Y-71791869D02*
X185092582Y-71718628D01*
X185092582Y-71718628D02*
X185077973Y-71591691D01*
X185077973Y-71591691D02*
X185175693Y-71323207D01*
X185175693Y-71323207D02*
X185288022Y-71181661D01*
X186537853Y-71089271D02*
X185410222Y-70678847D01*
X186742966Y-70859875D02*
X187055670Y-70000727D01*
X186704273Y-69629588D02*
X186899713Y-69092621D01*
X186987365Y-69854246D02*
X185996542Y-69067944D01*
X185996542Y-69067944D02*
X187260981Y-69102492D01*
X187524924Y-68043166D02*
X187559076Y-68116407D01*
X187559076Y-68116407D02*
X187554141Y-68297041D01*
X187554141Y-68297041D02*
X187515053Y-68404435D01*
X187515053Y-68404435D02*
X187402724Y-68545981D01*
X187402724Y-68545981D02*
X187256243Y-68614286D01*
X187256243Y-68614286D02*
X187129305Y-68628895D01*
X187129305Y-68628895D02*
X186894975Y-68604416D01*
X186894975Y-68604416D02*
X186733884Y-68545784D01*
X186733884Y-68545784D02*
X186538642Y-68413911D01*
X186538642Y-68413911D02*
X186450792Y-68321126D01*
X186450792Y-68321126D02*
X186382487Y-68174645D01*
X186382487Y-68174645D02*
X186387422Y-67994010D01*
X186387422Y-67994010D02*
X186426510Y-67886617D01*
X186426510Y-67886617D02*
X186538839Y-67745071D01*
X186538839Y-67745071D02*
X186612080Y-67710918D01*
X187808213Y-67598984D02*
X186680582Y-67188560D01*
X188042741Y-66954623D02*
X187222485Y-67203366D01*
X186915110Y-66544199D02*
X187324943Y-67423088D01*
X183848308Y-73996125D02*
X186639192Y-66328234D01*
X167438200Y-73391541D02*
X167495342Y-73220113D01*
X167495342Y-73220113D02*
X167495342Y-72934398D01*
X167495342Y-72934398D02*
X167438200Y-72820113D01*
X167438200Y-72820113D02*
X167381057Y-72762970D01*
X167381057Y-72762970D02*
X167266771Y-72705827D01*
X167266771Y-72705827D02*
X167152485Y-72705827D01*
X167152485Y-72705827D02*
X167038200Y-72762970D01*
X167038200Y-72762970D02*
X166981057Y-72820113D01*
X166981057Y-72820113D02*
X166923914Y-72934398D01*
X166923914Y-72934398D02*
X166866771Y-73162970D01*
X166866771Y-73162970D02*
X166809628Y-73277255D01*
X166809628Y-73277255D02*
X166752485Y-73334398D01*
X166752485Y-73334398D02*
X166638200Y-73391541D01*
X166638200Y-73391541D02*
X166523914Y-73391541D01*
X166523914Y-73391541D02*
X166409628Y-73334398D01*
X166409628Y-73334398D02*
X166352485Y-73277255D01*
X166352485Y-73277255D02*
X166295342Y-73162970D01*
X166295342Y-73162970D02*
X166295342Y-72877255D01*
X166295342Y-72877255D02*
X166352485Y-72705827D01*
X167381057Y-71505827D02*
X167438200Y-71562970D01*
X167438200Y-71562970D02*
X167495342Y-71734398D01*
X167495342Y-71734398D02*
X167495342Y-71848684D01*
X167495342Y-71848684D02*
X167438200Y-72020113D01*
X167438200Y-72020113D02*
X167323914Y-72134398D01*
X167323914Y-72134398D02*
X167209628Y-72191541D01*
X167209628Y-72191541D02*
X166981057Y-72248684D01*
X166981057Y-72248684D02*
X166809628Y-72248684D01*
X166809628Y-72248684D02*
X166581057Y-72191541D01*
X166581057Y-72191541D02*
X166466771Y-72134398D01*
X166466771Y-72134398D02*
X166352485Y-72020113D01*
X166352485Y-72020113D02*
X166295342Y-71848684D01*
X166295342Y-71848684D02*
X166295342Y-71734398D01*
X166295342Y-71734398D02*
X166352485Y-71562970D01*
X166352485Y-71562970D02*
X166409628Y-71505827D01*
X167438200Y-71048684D02*
X167495342Y-70877256D01*
X167495342Y-70877256D02*
X167495342Y-70591541D01*
X167495342Y-70591541D02*
X167438200Y-70477256D01*
X167438200Y-70477256D02*
X167381057Y-70420113D01*
X167381057Y-70420113D02*
X167266771Y-70362970D01*
X167266771Y-70362970D02*
X167152485Y-70362970D01*
X167152485Y-70362970D02*
X167038200Y-70420113D01*
X167038200Y-70420113D02*
X166981057Y-70477256D01*
X166981057Y-70477256D02*
X166923914Y-70591541D01*
X166923914Y-70591541D02*
X166866771Y-70820113D01*
X166866771Y-70820113D02*
X166809628Y-70934398D01*
X166809628Y-70934398D02*
X166752485Y-70991541D01*
X166752485Y-70991541D02*
X166638200Y-71048684D01*
X166638200Y-71048684D02*
X166523914Y-71048684D01*
X166523914Y-71048684D02*
X166409628Y-70991541D01*
X166409628Y-70991541D02*
X166352485Y-70934398D01*
X166352485Y-70934398D02*
X166295342Y-70820113D01*
X166295342Y-70820113D02*
X166295342Y-70534398D01*
X166295342Y-70534398D02*
X166352485Y-70362970D01*
X167495342Y-69848684D02*
X166295342Y-69848684D01*
X167609628Y-69562970D02*
X167609628Y-68648684D01*
X167381057Y-67677255D02*
X167438200Y-67734398D01*
X167438200Y-67734398D02*
X167495342Y-67905826D01*
X167495342Y-67905826D02*
X167495342Y-68020112D01*
X167495342Y-68020112D02*
X167438200Y-68191541D01*
X167438200Y-68191541D02*
X167323914Y-68305826D01*
X167323914Y-68305826D02*
X167209628Y-68362969D01*
X167209628Y-68362969D02*
X166981057Y-68420112D01*
X166981057Y-68420112D02*
X166809628Y-68420112D01*
X166809628Y-68420112D02*
X166581057Y-68362969D01*
X166581057Y-68362969D02*
X166466771Y-68305826D01*
X166466771Y-68305826D02*
X166352485Y-68191541D01*
X166352485Y-68191541D02*
X166295342Y-68020112D01*
X166295342Y-68020112D02*
X166295342Y-67905826D01*
X166295342Y-67905826D02*
X166352485Y-67734398D01*
X166352485Y-67734398D02*
X166409628Y-67677255D01*
X167495342Y-67162969D02*
X166295342Y-67162969D01*
X166295342Y-67162969D02*
X166295342Y-66877255D01*
X166295342Y-66877255D02*
X166352485Y-66705826D01*
X166352485Y-66705826D02*
X166466771Y-66591541D01*
X166466771Y-66591541D02*
X166581057Y-66534398D01*
X166581057Y-66534398D02*
X166809628Y-66477255D01*
X166809628Y-66477255D02*
X166981057Y-66477255D01*
X166981057Y-66477255D02*
X167209628Y-66534398D01*
X167209628Y-66534398D02*
X167323914Y-66591541D01*
X167323914Y-66591541D02*
X167438200Y-66705826D01*
X167438200Y-66705826D02*
X167495342Y-66877255D01*
X167495342Y-66877255D02*
X167495342Y-67162969D01*
X165962200Y-73500113D02*
X165962200Y-66368684D01*
X170138200Y-74191541D02*
X170195342Y-74020113D01*
X170195342Y-74020113D02*
X170195342Y-73734398D01*
X170195342Y-73734398D02*
X170138200Y-73620113D01*
X170138200Y-73620113D02*
X170081057Y-73562970D01*
X170081057Y-73562970D02*
X169966771Y-73505827D01*
X169966771Y-73505827D02*
X169852485Y-73505827D01*
X169852485Y-73505827D02*
X169738200Y-73562970D01*
X169738200Y-73562970D02*
X169681057Y-73620113D01*
X169681057Y-73620113D02*
X169623914Y-73734398D01*
X169623914Y-73734398D02*
X169566771Y-73962970D01*
X169566771Y-73962970D02*
X169509628Y-74077255D01*
X169509628Y-74077255D02*
X169452485Y-74134398D01*
X169452485Y-74134398D02*
X169338200Y-74191541D01*
X169338200Y-74191541D02*
X169223914Y-74191541D01*
X169223914Y-74191541D02*
X169109628Y-74134398D01*
X169109628Y-74134398D02*
X169052485Y-74077255D01*
X169052485Y-74077255D02*
X168995342Y-73962970D01*
X168995342Y-73962970D02*
X168995342Y-73677255D01*
X168995342Y-73677255D02*
X169052485Y-73505827D01*
X170081057Y-72305827D02*
X170138200Y-72362970D01*
X170138200Y-72362970D02*
X170195342Y-72534398D01*
X170195342Y-72534398D02*
X170195342Y-72648684D01*
X170195342Y-72648684D02*
X170138200Y-72820113D01*
X170138200Y-72820113D02*
X170023914Y-72934398D01*
X170023914Y-72934398D02*
X169909628Y-72991541D01*
X169909628Y-72991541D02*
X169681057Y-73048684D01*
X169681057Y-73048684D02*
X169509628Y-73048684D01*
X169509628Y-73048684D02*
X169281057Y-72991541D01*
X169281057Y-72991541D02*
X169166771Y-72934398D01*
X169166771Y-72934398D02*
X169052485Y-72820113D01*
X169052485Y-72820113D02*
X168995342Y-72648684D01*
X168995342Y-72648684D02*
X168995342Y-72534398D01*
X168995342Y-72534398D02*
X169052485Y-72362970D01*
X169052485Y-72362970D02*
X169109628Y-72305827D01*
X170138200Y-71848684D02*
X170195342Y-71677256D01*
X170195342Y-71677256D02*
X170195342Y-71391541D01*
X170195342Y-71391541D02*
X170138200Y-71277256D01*
X170138200Y-71277256D02*
X170081057Y-71220113D01*
X170081057Y-71220113D02*
X169966771Y-71162970D01*
X169966771Y-71162970D02*
X169852485Y-71162970D01*
X169852485Y-71162970D02*
X169738200Y-71220113D01*
X169738200Y-71220113D02*
X169681057Y-71277256D01*
X169681057Y-71277256D02*
X169623914Y-71391541D01*
X169623914Y-71391541D02*
X169566771Y-71620113D01*
X169566771Y-71620113D02*
X169509628Y-71734398D01*
X169509628Y-71734398D02*
X169452485Y-71791541D01*
X169452485Y-71791541D02*
X169338200Y-71848684D01*
X169338200Y-71848684D02*
X169223914Y-71848684D01*
X169223914Y-71848684D02*
X169109628Y-71791541D01*
X169109628Y-71791541D02*
X169052485Y-71734398D01*
X169052485Y-71734398D02*
X168995342Y-71620113D01*
X168995342Y-71620113D02*
X168995342Y-71334398D01*
X168995342Y-71334398D02*
X169052485Y-71162970D01*
X170195342Y-70648684D02*
X168995342Y-70648684D01*
X170309628Y-70362970D02*
X170309628Y-69448684D01*
X170138200Y-69220112D02*
X170195342Y-69048684D01*
X170195342Y-69048684D02*
X170195342Y-68762969D01*
X170195342Y-68762969D02*
X170138200Y-68648684D01*
X170138200Y-68648684D02*
X170081057Y-68591541D01*
X170081057Y-68591541D02*
X169966771Y-68534398D01*
X169966771Y-68534398D02*
X169852485Y-68534398D01*
X169852485Y-68534398D02*
X169738200Y-68591541D01*
X169738200Y-68591541D02*
X169681057Y-68648684D01*
X169681057Y-68648684D02*
X169623914Y-68762969D01*
X169623914Y-68762969D02*
X169566771Y-68991541D01*
X169566771Y-68991541D02*
X169509628Y-69105826D01*
X169509628Y-69105826D02*
X169452485Y-69162969D01*
X169452485Y-69162969D02*
X169338200Y-69220112D01*
X169338200Y-69220112D02*
X169223914Y-69220112D01*
X169223914Y-69220112D02*
X169109628Y-69162969D01*
X169109628Y-69162969D02*
X169052485Y-69105826D01*
X169052485Y-69105826D02*
X168995342Y-68991541D01*
X168995342Y-68991541D02*
X168995342Y-68705826D01*
X168995342Y-68705826D02*
X169052485Y-68534398D01*
X169566771Y-68020112D02*
X169566771Y-67620112D01*
X170195342Y-67448684D02*
X170195342Y-68020112D01*
X170195342Y-68020112D02*
X168995342Y-68020112D01*
X168995342Y-68020112D02*
X168995342Y-67448684D01*
X170195342Y-66362970D02*
X170195342Y-66934398D01*
X170195342Y-66934398D02*
X168995342Y-66934398D01*
X168662200Y-74300113D02*
X168662200Y-66368684D01*
X159888200Y-70362968D02*
X159945342Y-70191540D01*
X159945342Y-70191540D02*
X159945342Y-69905825D01*
X159945342Y-69905825D02*
X159888200Y-69791540D01*
X159888200Y-69791540D02*
X159831057Y-69734397D01*
X159831057Y-69734397D02*
X159716771Y-69677254D01*
X159716771Y-69677254D02*
X159602485Y-69677254D01*
X159602485Y-69677254D02*
X159488200Y-69734397D01*
X159488200Y-69734397D02*
X159431057Y-69791540D01*
X159431057Y-69791540D02*
X159373914Y-69905825D01*
X159373914Y-69905825D02*
X159316771Y-70134397D01*
X159316771Y-70134397D02*
X159259628Y-70248682D01*
X159259628Y-70248682D02*
X159202485Y-70305825D01*
X159202485Y-70305825D02*
X159088200Y-70362968D01*
X159088200Y-70362968D02*
X158973914Y-70362968D01*
X158973914Y-70362968D02*
X158859628Y-70305825D01*
X158859628Y-70305825D02*
X158802485Y-70248682D01*
X158802485Y-70248682D02*
X158745342Y-70134397D01*
X158745342Y-70134397D02*
X158745342Y-69848682D01*
X158745342Y-69848682D02*
X158802485Y-69677254D01*
X159316771Y-68762968D02*
X159316771Y-69162968D01*
X159945342Y-69162968D02*
X158745342Y-69162968D01*
X158745342Y-69162968D02*
X158745342Y-68591540D01*
X159888200Y-68191540D02*
X159945342Y-68020112D01*
X159945342Y-68020112D02*
X159945342Y-67734397D01*
X159945342Y-67734397D02*
X159888200Y-67620112D01*
X159888200Y-67620112D02*
X159831057Y-67562969D01*
X159831057Y-67562969D02*
X159716771Y-67505826D01*
X159716771Y-67505826D02*
X159602485Y-67505826D01*
X159602485Y-67505826D02*
X159488200Y-67562969D01*
X159488200Y-67562969D02*
X159431057Y-67620112D01*
X159431057Y-67620112D02*
X159373914Y-67734397D01*
X159373914Y-67734397D02*
X159316771Y-67962969D01*
X159316771Y-67962969D02*
X159259628Y-68077254D01*
X159259628Y-68077254D02*
X159202485Y-68134397D01*
X159202485Y-68134397D02*
X159088200Y-68191540D01*
X159088200Y-68191540D02*
X158973914Y-68191540D01*
X158973914Y-68191540D02*
X158859628Y-68134397D01*
X158859628Y-68134397D02*
X158802485Y-68077254D01*
X158802485Y-68077254D02*
X158745342Y-67962969D01*
X158745342Y-67962969D02*
X158745342Y-67677254D01*
X158745342Y-67677254D02*
X158802485Y-67505826D01*
X159373914Y-66762969D02*
X159945342Y-66762969D01*
X158745342Y-67162969D02*
X159373914Y-66762969D01*
X159373914Y-66762969D02*
X158745342Y-66362969D01*
X164895342Y-68455826D02*
X163695342Y-68455826D01*
X163695342Y-68455826D02*
X163695342Y-68170112D01*
X163695342Y-68170112D02*
X163752485Y-67998683D01*
X163752485Y-67998683D02*
X163866771Y-67884398D01*
X163866771Y-67884398D02*
X163981057Y-67827255D01*
X163981057Y-67827255D02*
X164209628Y-67770112D01*
X164209628Y-67770112D02*
X164381057Y-67770112D01*
X164381057Y-67770112D02*
X164609628Y-67827255D01*
X164609628Y-67827255D02*
X164723914Y-67884398D01*
X164723914Y-67884398D02*
X164838200Y-67998683D01*
X164838200Y-67998683D02*
X164895342Y-68170112D01*
X164895342Y-68170112D02*
X164895342Y-68455826D01*
X163695342Y-66684398D02*
X163695342Y-67255826D01*
X163695342Y-67255826D02*
X164266771Y-67312969D01*
X164266771Y-67312969D02*
X164209628Y-67255826D01*
X164209628Y-67255826D02*
X164152485Y-67141541D01*
X164152485Y-67141541D02*
X164152485Y-66855826D01*
X164152485Y-66855826D02*
X164209628Y-66741541D01*
X164209628Y-66741541D02*
X164266771Y-66684398D01*
X164266771Y-66684398D02*
X164381057Y-66627255D01*
X164381057Y-66627255D02*
X164666771Y-66627255D01*
X164666771Y-66627255D02*
X164781057Y-66684398D01*
X164781057Y-66684398D02*
X164838200Y-66741541D01*
X164838200Y-66741541D02*
X164895342Y-66855826D01*
X164895342Y-66855826D02*
X164895342Y-67141541D01*
X164895342Y-67141541D02*
X164838200Y-67255826D01*
X164838200Y-67255826D02*
X164781057Y-67312969D01*
X162538200Y-74705827D02*
X162595342Y-74534399D01*
X162595342Y-74534399D02*
X162595342Y-74248684D01*
X162595342Y-74248684D02*
X162538200Y-74134399D01*
X162538200Y-74134399D02*
X162481057Y-74077256D01*
X162481057Y-74077256D02*
X162366771Y-74020113D01*
X162366771Y-74020113D02*
X162252485Y-74020113D01*
X162252485Y-74020113D02*
X162138200Y-74077256D01*
X162138200Y-74077256D02*
X162081057Y-74134399D01*
X162081057Y-74134399D02*
X162023914Y-74248684D01*
X162023914Y-74248684D02*
X161966771Y-74477256D01*
X161966771Y-74477256D02*
X161909628Y-74591541D01*
X161909628Y-74591541D02*
X161852485Y-74648684D01*
X161852485Y-74648684D02*
X161738200Y-74705827D01*
X161738200Y-74705827D02*
X161623914Y-74705827D01*
X161623914Y-74705827D02*
X161509628Y-74648684D01*
X161509628Y-74648684D02*
X161452485Y-74591541D01*
X161452485Y-74591541D02*
X161395342Y-74477256D01*
X161395342Y-74477256D02*
X161395342Y-74191541D01*
X161395342Y-74191541D02*
X161452485Y-74020113D01*
X162481057Y-72820113D02*
X162538200Y-72877256D01*
X162538200Y-72877256D02*
X162595342Y-73048684D01*
X162595342Y-73048684D02*
X162595342Y-73162970D01*
X162595342Y-73162970D02*
X162538200Y-73334399D01*
X162538200Y-73334399D02*
X162423914Y-73448684D01*
X162423914Y-73448684D02*
X162309628Y-73505827D01*
X162309628Y-73505827D02*
X162081057Y-73562970D01*
X162081057Y-73562970D02*
X161909628Y-73562970D01*
X161909628Y-73562970D02*
X161681057Y-73505827D01*
X161681057Y-73505827D02*
X161566771Y-73448684D01*
X161566771Y-73448684D02*
X161452485Y-73334399D01*
X161452485Y-73334399D02*
X161395342Y-73162970D01*
X161395342Y-73162970D02*
X161395342Y-73048684D01*
X161395342Y-73048684D02*
X161452485Y-72877256D01*
X161452485Y-72877256D02*
X161509628Y-72820113D01*
X162538200Y-72362970D02*
X162595342Y-72191542D01*
X162595342Y-72191542D02*
X162595342Y-71905827D01*
X162595342Y-71905827D02*
X162538200Y-71791542D01*
X162538200Y-71791542D02*
X162481057Y-71734399D01*
X162481057Y-71734399D02*
X162366771Y-71677256D01*
X162366771Y-71677256D02*
X162252485Y-71677256D01*
X162252485Y-71677256D02*
X162138200Y-71734399D01*
X162138200Y-71734399D02*
X162081057Y-71791542D01*
X162081057Y-71791542D02*
X162023914Y-71905827D01*
X162023914Y-71905827D02*
X161966771Y-72134399D01*
X161966771Y-72134399D02*
X161909628Y-72248684D01*
X161909628Y-72248684D02*
X161852485Y-72305827D01*
X161852485Y-72305827D02*
X161738200Y-72362970D01*
X161738200Y-72362970D02*
X161623914Y-72362970D01*
X161623914Y-72362970D02*
X161509628Y-72305827D01*
X161509628Y-72305827D02*
X161452485Y-72248684D01*
X161452485Y-72248684D02*
X161395342Y-72134399D01*
X161395342Y-72134399D02*
X161395342Y-71848684D01*
X161395342Y-71848684D02*
X161452485Y-71677256D01*
X162595342Y-71162970D02*
X161395342Y-71162970D01*
X162709628Y-70877256D02*
X162709628Y-69962970D01*
X162595342Y-69677255D02*
X161395342Y-69677255D01*
X161395342Y-69677255D02*
X162252485Y-69277255D01*
X162252485Y-69277255D02*
X161395342Y-68877255D01*
X161395342Y-68877255D02*
X162595342Y-68877255D01*
X162538200Y-68362969D02*
X162595342Y-68191541D01*
X162595342Y-68191541D02*
X162595342Y-67905826D01*
X162595342Y-67905826D02*
X162538200Y-67791541D01*
X162538200Y-67791541D02*
X162481057Y-67734398D01*
X162481057Y-67734398D02*
X162366771Y-67677255D01*
X162366771Y-67677255D02*
X162252485Y-67677255D01*
X162252485Y-67677255D02*
X162138200Y-67734398D01*
X162138200Y-67734398D02*
X162081057Y-67791541D01*
X162081057Y-67791541D02*
X162023914Y-67905826D01*
X162023914Y-67905826D02*
X161966771Y-68134398D01*
X161966771Y-68134398D02*
X161909628Y-68248683D01*
X161909628Y-68248683D02*
X161852485Y-68305826D01*
X161852485Y-68305826D02*
X161738200Y-68362969D01*
X161738200Y-68362969D02*
X161623914Y-68362969D01*
X161623914Y-68362969D02*
X161509628Y-68305826D01*
X161509628Y-68305826D02*
X161452485Y-68248683D01*
X161452485Y-68248683D02*
X161395342Y-68134398D01*
X161395342Y-68134398D02*
X161395342Y-67848683D01*
X161395342Y-67848683D02*
X161452485Y-67677255D01*
X161452485Y-66534398D02*
X161395342Y-66648684D01*
X161395342Y-66648684D02*
X161395342Y-66820112D01*
X161395342Y-66820112D02*
X161452485Y-66991541D01*
X161452485Y-66991541D02*
X161566771Y-67105826D01*
X161566771Y-67105826D02*
X161681057Y-67162969D01*
X161681057Y-67162969D02*
X161909628Y-67220112D01*
X161909628Y-67220112D02*
X162081057Y-67220112D01*
X162081057Y-67220112D02*
X162309628Y-67162969D01*
X162309628Y-67162969D02*
X162423914Y-67105826D01*
X162423914Y-67105826D02*
X162538200Y-66991541D01*
X162538200Y-66991541D02*
X162595342Y-66820112D01*
X162595342Y-66820112D02*
X162595342Y-66705826D01*
X162595342Y-66705826D02*
X162538200Y-66534398D01*
X162538200Y-66534398D02*
X162481057Y-66477255D01*
X162481057Y-66477255D02*
X162081057Y-66477255D01*
X162081057Y-66477255D02*
X162081057Y-66705826D01*
X161062200Y-74814399D02*
X161062200Y-66368684D01*
X144545342Y-68455826D02*
X143345342Y-68455826D01*
X143345342Y-68455826D02*
X143345342Y-68170112D01*
X143345342Y-68170112D02*
X143402485Y-67998683D01*
X143402485Y-67998683D02*
X143516771Y-67884398D01*
X143516771Y-67884398D02*
X143631057Y-67827255D01*
X143631057Y-67827255D02*
X143859628Y-67770112D01*
X143859628Y-67770112D02*
X144031057Y-67770112D01*
X144031057Y-67770112D02*
X144259628Y-67827255D01*
X144259628Y-67827255D02*
X144373914Y-67884398D01*
X144373914Y-67884398D02*
X144488200Y-67998683D01*
X144488200Y-67998683D02*
X144545342Y-68170112D01*
X144545342Y-68170112D02*
X144545342Y-68455826D01*
X143345342Y-67370112D02*
X143345342Y-66627255D01*
X143345342Y-66627255D02*
X143802485Y-67027255D01*
X143802485Y-67027255D02*
X143802485Y-66855826D01*
X143802485Y-66855826D02*
X143859628Y-66741541D01*
X143859628Y-66741541D02*
X143916771Y-66684398D01*
X143916771Y-66684398D02*
X144031057Y-66627255D01*
X144031057Y-66627255D02*
X144316771Y-66627255D01*
X144316771Y-66627255D02*
X144431057Y-66684398D01*
X144431057Y-66684398D02*
X144488200Y-66741541D01*
X144488200Y-66741541D02*
X144545342Y-66855826D01*
X144545342Y-66855826D02*
X144545342Y-67198683D01*
X144545342Y-67198683D02*
X144488200Y-67312969D01*
X144488200Y-67312969D02*
X144431057Y-67370112D01*
D11*
G36*
X121853782Y-66822999D02*
G01*
X121853782Y-67009078D01*
X121812672Y-67091298D01*
X121776184Y-67127786D01*
X121693966Y-67168896D01*
X121393600Y-67168896D01*
X121311381Y-67127787D01*
X121274890Y-67091295D01*
X121233782Y-67009079D01*
X121233782Y-66822999D01*
X121256548Y-66777468D01*
X121831016Y-66777468D01*
X121853782Y-66822999D01*
G37*
G36*
X122167115Y-69767943D02*
G01*
X120520449Y-69767943D01*
X120520449Y-68973182D01*
X120653782Y-68973182D01*
X120653782Y-69144610D01*
X120654656Y-69153493D01*
X120654488Y-69155867D01*
X120655197Y-69158987D01*
X120655511Y-69162168D01*
X120656420Y-69164364D01*
X120658401Y-69173070D01*
X120715543Y-69344499D01*
X120722736Y-69360610D01*
X120724855Y-69363053D01*
X120726093Y-69366041D01*
X120737286Y-69379679D01*
X120851572Y-69493964D01*
X120858473Y-69499628D01*
X120860031Y-69501424D01*
X120862736Y-69503126D01*
X120865210Y-69505157D01*
X120867408Y-69506067D01*
X120874962Y-69510822D01*
X120989248Y-69567966D01*
X120990532Y-69568457D01*
X120991054Y-69568844D01*
X120998425Y-69571477D01*
X121005726Y-69574271D01*
X121006372Y-69574316D01*
X121007669Y-69574780D01*
X121236240Y-69631923D01*
X121239284Y-69632373D01*
X121240510Y-69632881D01*
X121247118Y-69633531D01*
X121253693Y-69634504D01*
X121255006Y-69634308D01*
X121258068Y-69634610D01*
X121429497Y-69634610D01*
X121432558Y-69634308D01*
X121433872Y-69634504D01*
X121440446Y-69633531D01*
X121447055Y-69632881D01*
X121448280Y-69632373D01*
X121451325Y-69631923D01*
X121679897Y-69574780D01*
X121681192Y-69574316D01*
X121681840Y-69574271D01*
X121689124Y-69571483D01*
X121696511Y-69568844D01*
X121697035Y-69568455D01*
X121698317Y-69567965D01*
X121812604Y-69510822D01*
X121820159Y-69506066D01*
X121822355Y-69505157D01*
X121824825Y-69503129D01*
X121827535Y-69501424D01*
X121829094Y-69499625D01*
X121835993Y-69493964D01*
X121950279Y-69379679D01*
X121961472Y-69366041D01*
X121962709Y-69363052D01*
X121964829Y-69360609D01*
X121972022Y-69344499D01*
X122029164Y-69173070D01*
X122031144Y-69164362D01*
X122032053Y-69162168D01*
X122032366Y-69158987D01*
X122033076Y-69155866D01*
X122032907Y-69153492D01*
X122033782Y-69144610D01*
X122033782Y-69030324D01*
X122032907Y-69021441D01*
X122033076Y-69019068D01*
X122032366Y-69015946D01*
X122032053Y-69012766D01*
X122031144Y-69010571D01*
X122029164Y-69001864D01*
X121972022Y-68830436D01*
X121964829Y-68814326D01*
X121962709Y-68811882D01*
X121961472Y-68808894D01*
X121950279Y-68795256D01*
X121893137Y-68738113D01*
X121879499Y-68726921D01*
X121869996Y-68722984D01*
X121847055Y-68713482D01*
X121829497Y-68711753D01*
X121429497Y-68711753D01*
X121411939Y-68713482D01*
X121379496Y-68726921D01*
X121354665Y-68751752D01*
X121341226Y-68784195D01*
X121339497Y-68801753D01*
X121339497Y-69030324D01*
X121341226Y-69047882D01*
X121354665Y-69080325D01*
X121379496Y-69105156D01*
X121411939Y-69118595D01*
X121447055Y-69118595D01*
X121479498Y-69105156D01*
X121504329Y-69080325D01*
X121517768Y-69047882D01*
X121519497Y-69030324D01*
X121519497Y-68891753D01*
X121792217Y-68891753D01*
X121807976Y-68907511D01*
X121853782Y-69044929D01*
X121853782Y-69130004D01*
X121807976Y-69267423D01*
X121719042Y-69356356D01*
X121626657Y-69402549D01*
X121418417Y-69454610D01*
X121269149Y-69454610D01*
X121060908Y-69402549D01*
X120968523Y-69356357D01*
X120879587Y-69267422D01*
X120833782Y-69130006D01*
X120833782Y-68994427D01*
X120881424Y-68899145D01*
X120887729Y-68882667D01*
X120890218Y-68847639D01*
X120879113Y-68814325D01*
X120856106Y-68787796D01*
X120824697Y-68772092D01*
X120789669Y-68769603D01*
X120756355Y-68780708D01*
X120729825Y-68803715D01*
X120720427Y-68818646D01*
X120663284Y-68932933D01*
X120656978Y-68949410D01*
X120656748Y-68952635D01*
X120655511Y-68955624D01*
X120653782Y-68973182D01*
X120520449Y-68973182D01*
X120520449Y-67944610D01*
X121053782Y-67944610D01*
X121053782Y-68116039D01*
X121055511Y-68133597D01*
X121056748Y-68136585D01*
X121056978Y-68139811D01*
X121063284Y-68156289D01*
X121092231Y-68214184D01*
X121068950Y-68237466D01*
X121055511Y-68269909D01*
X121055511Y-68305025D01*
X121068950Y-68337468D01*
X121093781Y-68362299D01*
X121126224Y-68375738D01*
X121143782Y-68377467D01*
X121943782Y-68377467D01*
X121961340Y-68375738D01*
X121993783Y-68362299D01*
X122018614Y-68337468D01*
X122032053Y-68305025D01*
X122032053Y-68269909D01*
X122018614Y-68237466D01*
X121993783Y-68212635D01*
X121961340Y-68199196D01*
X121943782Y-68197467D01*
X121295347Y-68197467D01*
X121274890Y-68177009D01*
X121233782Y-68094793D01*
X121233782Y-67965855D01*
X121268006Y-67897406D01*
X121336457Y-67863182D01*
X121943782Y-67863182D01*
X121961340Y-67861453D01*
X121993783Y-67848014D01*
X122018614Y-67823183D01*
X122032053Y-67790740D01*
X122032053Y-67755624D01*
X122018614Y-67723181D01*
X121993783Y-67698350D01*
X121961340Y-67684911D01*
X121943782Y-67683182D01*
X121315211Y-67683182D01*
X121297653Y-67684911D01*
X121294664Y-67686148D01*
X121291440Y-67686378D01*
X121274962Y-67692683D01*
X121160676Y-67749825D01*
X121157736Y-67751675D01*
X121156355Y-67752136D01*
X121154634Y-67753628D01*
X121145745Y-67759224D01*
X121138352Y-67767748D01*
X121129825Y-67775143D01*
X121124231Y-67784030D01*
X121122737Y-67785753D01*
X121122275Y-67787136D01*
X121120427Y-67790074D01*
X121063284Y-67904361D01*
X121056978Y-67920838D01*
X121056748Y-67924063D01*
X121055511Y-67927052D01*
X121053782Y-67944610D01*
X120520449Y-67944610D01*
X120520449Y-66669910D01*
X120655511Y-66669910D01*
X120655511Y-66705026D01*
X120668950Y-66737469D01*
X120693781Y-66762300D01*
X120726224Y-66775739D01*
X120743782Y-66777468D01*
X121057174Y-66777468D01*
X121056978Y-66777981D01*
X121056748Y-66781206D01*
X121055511Y-66784195D01*
X121053782Y-66801753D01*
X121053782Y-67030325D01*
X121055511Y-67047883D01*
X121056748Y-67050871D01*
X121056978Y-67054097D01*
X121063284Y-67070575D01*
X121120427Y-67184860D01*
X121125183Y-67192415D01*
X121126093Y-67194612D01*
X121128122Y-67197085D01*
X121129826Y-67199791D01*
X121131619Y-67201346D01*
X121137285Y-67208250D01*
X121194428Y-67265392D01*
X121201330Y-67271056D01*
X121202888Y-67272853D01*
X121205594Y-67274556D01*
X121208066Y-67276585D01*
X121210262Y-67277494D01*
X121217819Y-67282251D01*
X121332105Y-67339395D01*
X121348583Y-67345700D01*
X121351807Y-67345929D01*
X121354796Y-67347167D01*
X121372354Y-67348896D01*
X121715211Y-67348896D01*
X121732769Y-67347167D01*
X121735757Y-67345929D01*
X121738983Y-67345700D01*
X121755460Y-67339394D01*
X121869747Y-67282251D01*
X121877305Y-67277493D01*
X121879499Y-67276585D01*
X121881968Y-67274558D01*
X121884678Y-67272853D01*
X121886236Y-67271055D01*
X121893137Y-67265393D01*
X121950279Y-67208250D01*
X121955943Y-67201347D01*
X121957740Y-67199790D01*
X121959444Y-67197082D01*
X121961472Y-67194612D01*
X121962380Y-67192417D01*
X121967139Y-67184859D01*
X122024280Y-67070574D01*
X122030586Y-67054097D01*
X122030815Y-67050871D01*
X122032053Y-67047883D01*
X122033782Y-67030325D01*
X122033782Y-66801753D01*
X122032053Y-66784195D01*
X122030815Y-66781206D01*
X122030586Y-66777981D01*
X122024280Y-66761504D01*
X122014379Y-66741703D01*
X122018614Y-66737469D01*
X122032053Y-66705026D01*
X122032053Y-66669910D01*
X122018614Y-66637467D01*
X121993783Y-66612636D01*
X121961340Y-66599197D01*
X121943782Y-66597468D01*
X120743782Y-66597468D01*
X120726224Y-66599197D01*
X120693781Y-66612636D01*
X120668950Y-66637467D01*
X120655511Y-66669910D01*
X120520449Y-66669910D01*
X120520449Y-66464135D01*
X122167115Y-66464135D01*
X122167115Y-69767943D01*
G37*
D10*
X139545342Y-73791541D02*
X138345342Y-73791541D01*
X138345342Y-73791541D02*
X138345342Y-73334398D01*
X138345342Y-73334398D02*
X138402485Y-73220113D01*
X138402485Y-73220113D02*
X138459628Y-73162970D01*
X138459628Y-73162970D02*
X138573914Y-73105827D01*
X138573914Y-73105827D02*
X138745342Y-73105827D01*
X138745342Y-73105827D02*
X138859628Y-73162970D01*
X138859628Y-73162970D02*
X138916771Y-73220113D01*
X138916771Y-73220113D02*
X138973914Y-73334398D01*
X138973914Y-73334398D02*
X138973914Y-73791541D01*
X139431057Y-71905827D02*
X139488200Y-71962970D01*
X139488200Y-71962970D02*
X139545342Y-72134398D01*
X139545342Y-72134398D02*
X139545342Y-72248684D01*
X139545342Y-72248684D02*
X139488200Y-72420113D01*
X139488200Y-72420113D02*
X139373914Y-72534398D01*
X139373914Y-72534398D02*
X139259628Y-72591541D01*
X139259628Y-72591541D02*
X139031057Y-72648684D01*
X139031057Y-72648684D02*
X138859628Y-72648684D01*
X138859628Y-72648684D02*
X138631057Y-72591541D01*
X138631057Y-72591541D02*
X138516771Y-72534398D01*
X138516771Y-72534398D02*
X138402485Y-72420113D01*
X138402485Y-72420113D02*
X138345342Y-72248684D01*
X138345342Y-72248684D02*
X138345342Y-72134398D01*
X138345342Y-72134398D02*
X138402485Y-71962970D01*
X138402485Y-71962970D02*
X138459628Y-71905827D01*
X139545342Y-71391541D02*
X138345342Y-71391541D01*
X138345342Y-71391541D02*
X139202485Y-70991541D01*
X139202485Y-70991541D02*
X138345342Y-70591541D01*
X138345342Y-70591541D02*
X139545342Y-70591541D01*
X139659628Y-70305827D02*
X139659628Y-69391541D01*
X139545342Y-69105826D02*
X138345342Y-69105826D01*
X138345342Y-69105826D02*
X138345342Y-68820112D01*
X138345342Y-68820112D02*
X138402485Y-68648683D01*
X138402485Y-68648683D02*
X138516771Y-68534398D01*
X138516771Y-68534398D02*
X138631057Y-68477255D01*
X138631057Y-68477255D02*
X138859628Y-68420112D01*
X138859628Y-68420112D02*
X139031057Y-68420112D01*
X139031057Y-68420112D02*
X139259628Y-68477255D01*
X139259628Y-68477255D02*
X139373914Y-68534398D01*
X139373914Y-68534398D02*
X139488200Y-68648683D01*
X139488200Y-68648683D02*
X139545342Y-68820112D01*
X139545342Y-68820112D02*
X139545342Y-69105826D01*
X139202485Y-67962969D02*
X139202485Y-67391541D01*
X139545342Y-68077255D02*
X138345342Y-67677255D01*
X138345342Y-67677255D02*
X139545342Y-67277255D01*
X138345342Y-67048684D02*
X138345342Y-66362970D01*
X139545342Y-66705827D02*
X138345342Y-66705827D01*
X154795342Y-68305826D02*
X153595342Y-68305826D01*
X153595342Y-68305826D02*
X153595342Y-68020112D01*
X153595342Y-68020112D02*
X153652485Y-67848683D01*
X153652485Y-67848683D02*
X153766771Y-67734398D01*
X153766771Y-67734398D02*
X153881057Y-67677255D01*
X153881057Y-67677255D02*
X154109628Y-67620112D01*
X154109628Y-67620112D02*
X154281057Y-67620112D01*
X154281057Y-67620112D02*
X154509628Y-67677255D01*
X154509628Y-67677255D02*
X154623914Y-67734398D01*
X154623914Y-67734398D02*
X154738200Y-67848683D01*
X154738200Y-67848683D02*
X154795342Y-68020112D01*
X154795342Y-68020112D02*
X154795342Y-68305826D01*
X153995342Y-66591541D02*
X154795342Y-66591541D01*
X153538200Y-66877255D02*
X154395342Y-67162969D01*
X154395342Y-67162969D02*
X154395342Y-66420112D01*
D11*
G36*
X126703782Y-66822999D02*
G01*
X126703782Y-67009078D01*
X126662672Y-67091298D01*
X126626184Y-67127786D01*
X126543966Y-67168896D01*
X126243600Y-67168896D01*
X126161381Y-67127787D01*
X126124890Y-67091295D01*
X126083782Y-67009079D01*
X126083782Y-66822999D01*
X126106548Y-66777468D01*
X126681016Y-66777468D01*
X126703782Y-66822999D01*
G37*
G36*
X127017115Y-69767943D02*
G01*
X125370449Y-69767943D01*
X125370449Y-68973182D01*
X125503782Y-68973182D01*
X125503782Y-69144610D01*
X125504656Y-69153493D01*
X125504488Y-69155867D01*
X125505197Y-69158987D01*
X125505511Y-69162168D01*
X125506420Y-69164364D01*
X125508401Y-69173070D01*
X125565543Y-69344499D01*
X125572736Y-69360610D01*
X125574855Y-69363053D01*
X125576093Y-69366041D01*
X125587286Y-69379679D01*
X125701572Y-69493964D01*
X125708473Y-69499628D01*
X125710031Y-69501424D01*
X125712736Y-69503126D01*
X125715210Y-69505157D01*
X125717408Y-69506067D01*
X125724962Y-69510822D01*
X125839248Y-69567966D01*
X125840532Y-69568457D01*
X125841054Y-69568844D01*
X125848425Y-69571477D01*
X125855726Y-69574271D01*
X125856372Y-69574316D01*
X125857669Y-69574780D01*
X126086240Y-69631923D01*
X126089284Y-69632373D01*
X126090510Y-69632881D01*
X126097118Y-69633531D01*
X126103693Y-69634504D01*
X126105006Y-69634308D01*
X126108068Y-69634610D01*
X126279497Y-69634610D01*
X126282558Y-69634308D01*
X126283872Y-69634504D01*
X126290446Y-69633531D01*
X126297055Y-69632881D01*
X126298280Y-69632373D01*
X126301325Y-69631923D01*
X126529897Y-69574780D01*
X126531192Y-69574316D01*
X126531840Y-69574271D01*
X126539124Y-69571483D01*
X126546511Y-69568844D01*
X126547035Y-69568455D01*
X126548317Y-69567965D01*
X126662604Y-69510822D01*
X126670159Y-69506066D01*
X126672355Y-69505157D01*
X126674825Y-69503129D01*
X126677535Y-69501424D01*
X126679094Y-69499625D01*
X126685993Y-69493964D01*
X126800279Y-69379679D01*
X126811472Y-69366041D01*
X126812709Y-69363052D01*
X126814829Y-69360609D01*
X126822022Y-69344499D01*
X126879164Y-69173070D01*
X126881144Y-69164362D01*
X126882053Y-69162168D01*
X126882366Y-69158987D01*
X126883076Y-69155866D01*
X126882907Y-69153492D01*
X126883782Y-69144610D01*
X126883782Y-69030324D01*
X126882907Y-69021441D01*
X126883076Y-69019068D01*
X126882366Y-69015946D01*
X126882053Y-69012766D01*
X126881144Y-69010571D01*
X126879164Y-69001864D01*
X126822022Y-68830436D01*
X126814829Y-68814326D01*
X126812709Y-68811882D01*
X126811472Y-68808894D01*
X126800279Y-68795256D01*
X126743137Y-68738113D01*
X126729499Y-68726921D01*
X126719996Y-68722984D01*
X126697055Y-68713482D01*
X126679497Y-68711753D01*
X126279497Y-68711753D01*
X126261939Y-68713482D01*
X126229496Y-68726921D01*
X126204665Y-68751752D01*
X126191226Y-68784195D01*
X126189497Y-68801753D01*
X126189497Y-69030324D01*
X126191226Y-69047882D01*
X126204665Y-69080325D01*
X126229496Y-69105156D01*
X126261939Y-69118595D01*
X126297055Y-69118595D01*
X126329498Y-69105156D01*
X126354329Y-69080325D01*
X126367768Y-69047882D01*
X126369497Y-69030324D01*
X126369497Y-68891753D01*
X126642217Y-68891753D01*
X126657976Y-68907511D01*
X126703782Y-69044929D01*
X126703782Y-69130004D01*
X126657976Y-69267423D01*
X126569042Y-69356356D01*
X126476657Y-69402549D01*
X126268417Y-69454610D01*
X126119149Y-69454610D01*
X125910908Y-69402549D01*
X125818523Y-69356357D01*
X125729587Y-69267422D01*
X125683782Y-69130006D01*
X125683782Y-68994427D01*
X125731424Y-68899145D01*
X125737729Y-68882667D01*
X125740218Y-68847639D01*
X125729113Y-68814325D01*
X125706106Y-68787796D01*
X125674697Y-68772092D01*
X125639669Y-68769603D01*
X125606355Y-68780708D01*
X125579825Y-68803715D01*
X125570427Y-68818646D01*
X125513284Y-68932933D01*
X125506978Y-68949410D01*
X125506748Y-68952635D01*
X125505511Y-68955624D01*
X125503782Y-68973182D01*
X125370449Y-68973182D01*
X125370449Y-67944610D01*
X125903782Y-67944610D01*
X125903782Y-68116039D01*
X125905511Y-68133597D01*
X125906748Y-68136585D01*
X125906978Y-68139811D01*
X125913284Y-68156289D01*
X125942231Y-68214184D01*
X125918950Y-68237466D01*
X125905511Y-68269909D01*
X125905511Y-68305025D01*
X125918950Y-68337468D01*
X125943781Y-68362299D01*
X125976224Y-68375738D01*
X125993782Y-68377467D01*
X126793782Y-68377467D01*
X126811340Y-68375738D01*
X126843783Y-68362299D01*
X126868614Y-68337468D01*
X126882053Y-68305025D01*
X126882053Y-68269909D01*
X126868614Y-68237466D01*
X126843783Y-68212635D01*
X126811340Y-68199196D01*
X126793782Y-68197467D01*
X126145347Y-68197467D01*
X126124890Y-68177009D01*
X126083782Y-68094793D01*
X126083782Y-67965855D01*
X126118006Y-67897406D01*
X126186457Y-67863182D01*
X126793782Y-67863182D01*
X126811340Y-67861453D01*
X126843783Y-67848014D01*
X126868614Y-67823183D01*
X126882053Y-67790740D01*
X126882053Y-67755624D01*
X126868614Y-67723181D01*
X126843783Y-67698350D01*
X126811340Y-67684911D01*
X126793782Y-67683182D01*
X126165211Y-67683182D01*
X126147653Y-67684911D01*
X126144664Y-67686148D01*
X126141440Y-67686378D01*
X126124962Y-67692683D01*
X126010676Y-67749825D01*
X126007736Y-67751675D01*
X126006355Y-67752136D01*
X126004634Y-67753628D01*
X125995745Y-67759224D01*
X125988352Y-67767748D01*
X125979825Y-67775143D01*
X125974231Y-67784030D01*
X125972737Y-67785753D01*
X125972275Y-67787136D01*
X125970427Y-67790074D01*
X125913284Y-67904361D01*
X125906978Y-67920838D01*
X125906748Y-67924063D01*
X125905511Y-67927052D01*
X125903782Y-67944610D01*
X125370449Y-67944610D01*
X125370449Y-66669910D01*
X125505511Y-66669910D01*
X125505511Y-66705026D01*
X125518950Y-66737469D01*
X125543781Y-66762300D01*
X125576224Y-66775739D01*
X125593782Y-66777468D01*
X125907174Y-66777468D01*
X125906978Y-66777981D01*
X125906748Y-66781206D01*
X125905511Y-66784195D01*
X125903782Y-66801753D01*
X125903782Y-67030325D01*
X125905511Y-67047883D01*
X125906748Y-67050871D01*
X125906978Y-67054097D01*
X125913284Y-67070575D01*
X125970427Y-67184860D01*
X125975183Y-67192415D01*
X125976093Y-67194612D01*
X125978122Y-67197085D01*
X125979826Y-67199791D01*
X125981619Y-67201346D01*
X125987285Y-67208250D01*
X126044428Y-67265392D01*
X126051330Y-67271056D01*
X126052888Y-67272853D01*
X126055594Y-67274556D01*
X126058066Y-67276585D01*
X126060262Y-67277494D01*
X126067819Y-67282251D01*
X126182105Y-67339395D01*
X126198583Y-67345700D01*
X126201807Y-67345929D01*
X126204796Y-67347167D01*
X126222354Y-67348896D01*
X126565211Y-67348896D01*
X126582769Y-67347167D01*
X126585757Y-67345929D01*
X126588983Y-67345700D01*
X126605460Y-67339394D01*
X126719747Y-67282251D01*
X126727305Y-67277493D01*
X126729499Y-67276585D01*
X126731968Y-67274558D01*
X126734678Y-67272853D01*
X126736236Y-67271055D01*
X126743137Y-67265393D01*
X126800279Y-67208250D01*
X126805943Y-67201347D01*
X126807740Y-67199790D01*
X126809444Y-67197082D01*
X126811472Y-67194612D01*
X126812380Y-67192417D01*
X126817139Y-67184859D01*
X126874280Y-67070574D01*
X126880586Y-67054097D01*
X126880815Y-67050871D01*
X126882053Y-67047883D01*
X126883782Y-67030325D01*
X126883782Y-66801753D01*
X126882053Y-66784195D01*
X126880815Y-66781206D01*
X126880586Y-66777981D01*
X126874280Y-66761504D01*
X126864379Y-66741703D01*
X126868614Y-66737469D01*
X126882053Y-66705026D01*
X126882053Y-66669910D01*
X126868614Y-66637467D01*
X126843783Y-66612636D01*
X126811340Y-66599197D01*
X126793782Y-66597468D01*
X125593782Y-66597468D01*
X125576224Y-66599197D01*
X125543781Y-66612636D01*
X125518950Y-66637467D01*
X125505511Y-66669910D01*
X125370449Y-66669910D01*
X125370449Y-66464135D01*
X127017115Y-66464135D01*
X127017115Y-69767943D01*
G37*
D10*
X141752485Y-72991540D02*
X141752485Y-72420112D01*
X142095342Y-73105826D02*
X140895342Y-72705826D01*
X140895342Y-72705826D02*
X142095342Y-72305826D01*
X141295342Y-71391541D02*
X142095342Y-71391541D01*
X141295342Y-71905826D02*
X141923914Y-71905826D01*
X141923914Y-71905826D02*
X142038200Y-71848683D01*
X142038200Y-71848683D02*
X142095342Y-71734398D01*
X142095342Y-71734398D02*
X142095342Y-71562969D01*
X142095342Y-71562969D02*
X142038200Y-71448683D01*
X142038200Y-71448683D02*
X141981057Y-71391541D01*
X142095342Y-70305827D02*
X140895342Y-70305827D01*
X142038200Y-70305827D02*
X142095342Y-70420112D01*
X142095342Y-70420112D02*
X142095342Y-70648684D01*
X142095342Y-70648684D02*
X142038200Y-70762969D01*
X142038200Y-70762969D02*
X141981057Y-70820112D01*
X141981057Y-70820112D02*
X141866771Y-70877255D01*
X141866771Y-70877255D02*
X141523914Y-70877255D01*
X141523914Y-70877255D02*
X141409628Y-70820112D01*
X141409628Y-70820112D02*
X141352485Y-70762969D01*
X141352485Y-70762969D02*
X141295342Y-70648684D01*
X141295342Y-70648684D02*
X141295342Y-70420112D01*
X141295342Y-70420112D02*
X141352485Y-70305827D01*
X142095342Y-69734398D02*
X141295342Y-69734398D01*
X140895342Y-69734398D02*
X140952485Y-69791541D01*
X140952485Y-69791541D02*
X141009628Y-69734398D01*
X141009628Y-69734398D02*
X140952485Y-69677255D01*
X140952485Y-69677255D02*
X140895342Y-69734398D01*
X140895342Y-69734398D02*
X141009628Y-69734398D01*
X142095342Y-68991541D02*
X142038200Y-69105826D01*
X142038200Y-69105826D02*
X141981057Y-69162969D01*
X141981057Y-69162969D02*
X141866771Y-69220112D01*
X141866771Y-69220112D02*
X141523914Y-69220112D01*
X141523914Y-69220112D02*
X141409628Y-69162969D01*
X141409628Y-69162969D02*
X141352485Y-69105826D01*
X141352485Y-69105826D02*
X141295342Y-68991541D01*
X141295342Y-68991541D02*
X141295342Y-68820112D01*
X141295342Y-68820112D02*
X141352485Y-68705826D01*
X141352485Y-68705826D02*
X141409628Y-68648684D01*
X141409628Y-68648684D02*
X141523914Y-68591541D01*
X141523914Y-68591541D02*
X141866771Y-68591541D01*
X141866771Y-68591541D02*
X141981057Y-68648684D01*
X141981057Y-68648684D02*
X142038200Y-68705826D01*
X142038200Y-68705826D02*
X142095342Y-68820112D01*
X142095342Y-68820112D02*
X142095342Y-68991541D01*
X142095342Y-66477255D02*
X141523914Y-66877255D01*
X142095342Y-67162969D02*
X140895342Y-67162969D01*
X140895342Y-67162969D02*
X140895342Y-66705826D01*
X140895342Y-66705826D02*
X140952485Y-66591541D01*
X140952485Y-66591541D02*
X141009628Y-66534398D01*
X141009628Y-66534398D02*
X141123914Y-66477255D01*
X141123914Y-66477255D02*
X141295342Y-66477255D01*
X141295342Y-66477255D02*
X141409628Y-66534398D01*
X141409628Y-66534398D02*
X141466771Y-66591541D01*
X141466771Y-66591541D02*
X141523914Y-66705826D01*
X141523914Y-66705826D02*
X141523914Y-67162969D01*
D11*
G36*
X146377204Y-67817166D02*
G01*
X146463682Y-67871215D01*
X146503596Y-67916119D01*
X146546640Y-68007584D01*
X146546640Y-68193538D01*
X146507835Y-68266296D01*
X146475417Y-68294662D01*
X146397228Y-68323983D01*
X146153217Y-68293481D01*
X146066738Y-68239432D01*
X146026825Y-68194530D01*
X145983782Y-68103062D01*
X145983782Y-67917110D01*
X146022586Y-67844352D01*
X146055006Y-67815985D01*
X146133193Y-67786665D01*
X146377204Y-67817166D01*
G37*
G36*
X147317115Y-70094785D02*
G01*
X145670449Y-70094785D01*
X145670449Y-69365370D01*
X146089730Y-69365370D01*
X146099041Y-69399229D01*
X146120600Y-69426948D01*
X146151126Y-69444308D01*
X146168334Y-69448201D01*
X146546640Y-69495488D01*
X146546640Y-69873181D01*
X146548369Y-69890739D01*
X146561808Y-69923182D01*
X146586639Y-69948013D01*
X146619082Y-69961452D01*
X146654198Y-69961452D01*
X146686641Y-69948013D01*
X146711472Y-69923182D01*
X146724911Y-69890739D01*
X146726640Y-69873181D01*
X146726640Y-69517988D01*
X147082619Y-69562486D01*
X147100256Y-69562948D01*
X147134115Y-69553637D01*
X147161834Y-69532078D01*
X147179193Y-69501552D01*
X147183549Y-69466707D01*
X147174238Y-69432848D01*
X147152679Y-69405129D01*
X147122153Y-69387769D01*
X147104945Y-69383876D01*
X146726640Y-69336588D01*
X146726640Y-68958896D01*
X146724911Y-68941338D01*
X146711472Y-68908895D01*
X146686641Y-68884064D01*
X146654198Y-68870625D01*
X146619082Y-68870625D01*
X146586639Y-68884064D01*
X146561808Y-68908895D01*
X146548369Y-68941338D01*
X146546640Y-68958896D01*
X146546640Y-69314088D01*
X146190660Y-69269591D01*
X146173023Y-69269129D01*
X146139164Y-69278440D01*
X146111445Y-69299999D01*
X146094085Y-69330525D01*
X146089730Y-69365370D01*
X145670449Y-69365370D01*
X145670449Y-67894610D01*
X145803782Y-67894610D01*
X145803782Y-68123182D01*
X145805511Y-68140740D01*
X145806335Y-68142730D01*
X145806437Y-68144881D01*
X145812348Y-68161504D01*
X145869492Y-68282932D01*
X145872587Y-68288119D01*
X145873285Y-68290131D01*
X145876090Y-68293990D01*
X145878532Y-68298083D01*
X145880104Y-68299513D01*
X145883658Y-68304403D01*
X145940801Y-68368689D01*
X145945173Y-68372729D01*
X145946396Y-68374444D01*
X145950212Y-68377386D01*
X145953758Y-68380663D01*
X145955656Y-68381583D01*
X145960368Y-68385216D01*
X146074654Y-68456644D01*
X146090460Y-68464483D01*
X146092332Y-68464796D01*
X146093983Y-68465735D01*
X146111191Y-68469629D01*
X146396905Y-68505344D01*
X146414542Y-68505806D01*
X146418508Y-68504715D01*
X146422622Y-68504855D01*
X146439669Y-68500309D01*
X146553955Y-68457452D01*
X146565522Y-68451764D01*
X146567267Y-68451175D01*
X146568465Y-68450318D01*
X146569788Y-68449668D01*
X146571134Y-68448410D01*
X146581619Y-68440914D01*
X146638763Y-68390914D01*
X146647747Y-68381343D01*
X146649121Y-68380214D01*
X146649889Y-68379061D01*
X146650838Y-68378051D01*
X146651626Y-68376456D01*
X146658909Y-68365535D01*
X146716052Y-68258392D01*
X146722789Y-68242086D01*
X146723218Y-68237682D01*
X146724911Y-68233597D01*
X146726640Y-68216039D01*
X146726640Y-67987467D01*
X146724911Y-67969909D01*
X146724086Y-67967918D01*
X146723985Y-67965768D01*
X146718074Y-67949145D01*
X146689899Y-67889274D01*
X146763263Y-67916785D01*
X146917462Y-68038859D01*
X146960738Y-68087545D01*
X147003782Y-68179013D01*
X147003782Y-68387467D01*
X147005511Y-68405025D01*
X147018950Y-68437468D01*
X147043781Y-68462299D01*
X147076224Y-68475738D01*
X147111340Y-68475738D01*
X147143783Y-68462299D01*
X147168614Y-68437468D01*
X147182053Y-68405025D01*
X147183782Y-68387467D01*
X147183782Y-68158896D01*
X147182053Y-68141338D01*
X147181228Y-68139347D01*
X147181127Y-68137198D01*
X147175216Y-68120575D01*
X147118074Y-67999146D01*
X147114976Y-67993954D01*
X147114279Y-67991945D01*
X147111474Y-67988087D01*
X147109033Y-67983995D01*
X147107460Y-67982564D01*
X147103906Y-67977674D01*
X147046763Y-67913389D01*
X147041017Y-67908079D01*
X147035360Y-67902618D01*
X146863931Y-67766903D01*
X146857223Y-67762589D01*
X146855502Y-67760981D01*
X146852192Y-67759353D01*
X146849092Y-67757360D01*
X146846827Y-67756716D01*
X146839669Y-67753197D01*
X146611098Y-67667483D01*
X146608799Y-67666869D01*
X146607869Y-67666341D01*
X146600923Y-67664769D01*
X146594051Y-67662937D01*
X146592982Y-67662973D01*
X146590661Y-67662448D01*
X146133517Y-67605305D01*
X146115880Y-67604843D01*
X146111913Y-67605933D01*
X146107800Y-67605794D01*
X146090753Y-67610340D01*
X145976467Y-67653197D01*
X145964898Y-67658884D01*
X145963155Y-67659474D01*
X145961956Y-67660330D01*
X145960634Y-67660981D01*
X145959287Y-67662238D01*
X145948803Y-67669735D01*
X145891660Y-67719735D01*
X145882672Y-67729308D01*
X145881302Y-67730435D01*
X145880535Y-67731584D01*
X145879584Y-67732598D01*
X145878793Y-67734196D01*
X145871513Y-67745114D01*
X145814370Y-67852257D01*
X145807633Y-67868563D01*
X145807203Y-67872966D01*
X145805511Y-67877052D01*
X145803782Y-67894610D01*
X145670449Y-67894610D01*
X145670449Y-67323996D01*
X145803785Y-67323996D01*
X145810947Y-67358374D01*
X145830721Y-67387394D01*
X145860094Y-67406639D01*
X145894596Y-67413179D01*
X145912138Y-67411290D01*
X147112138Y-67161290D01*
X147128974Y-67156017D01*
X147134600Y-67152182D01*
X147140976Y-67149815D01*
X147148975Y-67142388D01*
X147157994Y-67136243D01*
X147161720Y-67130555D01*
X147166711Y-67125922D01*
X147171261Y-67115992D01*
X147177239Y-67106870D01*
X147178505Y-67100187D01*
X147181342Y-67093999D01*
X147181746Y-67083093D01*
X147183779Y-67072368D01*
X147182390Y-67065702D01*
X147182642Y-67058907D01*
X147178843Y-67048679D01*
X147176616Y-67037990D01*
X147172783Y-67032365D01*
X147170415Y-67025988D01*
X147162987Y-67017988D01*
X147156843Y-67008970D01*
X147151153Y-67005242D01*
X147146522Y-67000254D01*
X147131281Y-66991366D01*
X145931281Y-66441366D01*
X145914599Y-66435622D01*
X145879507Y-66434322D01*
X145846588Y-66446549D01*
X145820854Y-66470442D01*
X145806222Y-66502365D01*
X145804922Y-66537457D01*
X145817149Y-66570376D01*
X145841042Y-66596110D01*
X145856283Y-66604998D01*
X146807379Y-67040917D01*
X145875426Y-67235074D01*
X145858590Y-67240347D01*
X145829570Y-67260121D01*
X145810325Y-67289494D01*
X145803785Y-67323996D01*
X145670449Y-67323996D01*
X145670449Y-66300989D01*
X147317115Y-66300989D01*
X147317115Y-70094785D01*
G37*
D10*
X185345342Y-68305826D02*
X184145342Y-68305826D01*
X184145342Y-68305826D02*
X184145342Y-68020112D01*
X184145342Y-68020112D02*
X184202485Y-67848683D01*
X184202485Y-67848683D02*
X184316771Y-67734398D01*
X184316771Y-67734398D02*
X184431057Y-67677255D01*
X184431057Y-67677255D02*
X184659628Y-67620112D01*
X184659628Y-67620112D02*
X184831057Y-67620112D01*
X184831057Y-67620112D02*
X185059628Y-67677255D01*
X185059628Y-67677255D02*
X185173914Y-67734398D01*
X185173914Y-67734398D02*
X185288200Y-67848683D01*
X185288200Y-67848683D02*
X185345342Y-68020112D01*
X185345342Y-68020112D02*
X185345342Y-68305826D01*
X184145342Y-67220112D02*
X184145342Y-66420112D01*
X184145342Y-66420112D02*
X185345342Y-66934398D01*
D12*
X130314285Y-85140025D02*
X130314285Y-82140025D01*
X130314285Y-82140025D02*
X131457142Y-82140025D01*
X131457142Y-82140025D02*
X131742857Y-82282882D01*
X131742857Y-82282882D02*
X131885714Y-82425739D01*
X131885714Y-82425739D02*
X132028571Y-82711453D01*
X132028571Y-82711453D02*
X132028571Y-83140025D01*
X132028571Y-83140025D02*
X131885714Y-83425739D01*
X131885714Y-83425739D02*
X131742857Y-83568596D01*
X131742857Y-83568596D02*
X131457142Y-83711453D01*
X131457142Y-83711453D02*
X130314285Y-83711453D01*
X135028571Y-84854310D02*
X134885714Y-84997168D01*
X134885714Y-84997168D02*
X134457142Y-85140025D01*
X134457142Y-85140025D02*
X134171428Y-85140025D01*
X134171428Y-85140025D02*
X133742857Y-84997168D01*
X133742857Y-84997168D02*
X133457142Y-84711453D01*
X133457142Y-84711453D02*
X133314285Y-84425739D01*
X133314285Y-84425739D02*
X133171428Y-83854310D01*
X133171428Y-83854310D02*
X133171428Y-83425739D01*
X133171428Y-83425739D02*
X133314285Y-82854310D01*
X133314285Y-82854310D02*
X133457142Y-82568596D01*
X133457142Y-82568596D02*
X133742857Y-82282882D01*
X133742857Y-82282882D02*
X134171428Y-82140025D01*
X134171428Y-82140025D02*
X134457142Y-82140025D01*
X134457142Y-82140025D02*
X134885714Y-82282882D01*
X134885714Y-82282882D02*
X135028571Y-82425739D01*
X138599999Y-83568596D02*
X139599999Y-83568596D01*
X140028571Y-85140025D02*
X138599999Y-85140025D01*
X138599999Y-85140025D02*
X138599999Y-82140025D01*
X138599999Y-82140025D02*
X140028571Y-82140025D01*
X141314285Y-83140025D02*
X141314285Y-85140025D01*
X141314285Y-83425739D02*
X141457142Y-83282882D01*
X141457142Y-83282882D02*
X141742857Y-83140025D01*
X141742857Y-83140025D02*
X142171428Y-83140025D01*
X142171428Y-83140025D02*
X142457142Y-83282882D01*
X142457142Y-83282882D02*
X142600000Y-83568596D01*
X142600000Y-83568596D02*
X142600000Y-85140025D01*
X145314286Y-83140025D02*
X145314286Y-85568596D01*
X145314286Y-85568596D02*
X145171428Y-85854310D01*
X145171428Y-85854310D02*
X145028571Y-85997168D01*
X145028571Y-85997168D02*
X144742857Y-86140025D01*
X144742857Y-86140025D02*
X144314286Y-86140025D01*
X144314286Y-86140025D02*
X144028571Y-85997168D01*
X145314286Y-84997168D02*
X145028571Y-85140025D01*
X145028571Y-85140025D02*
X144457143Y-85140025D01*
X144457143Y-85140025D02*
X144171428Y-84997168D01*
X144171428Y-84997168D02*
X144028571Y-84854310D01*
X144028571Y-84854310D02*
X143885714Y-84568596D01*
X143885714Y-84568596D02*
X143885714Y-83711453D01*
X143885714Y-83711453D02*
X144028571Y-83425739D01*
X144028571Y-83425739D02*
X144171428Y-83282882D01*
X144171428Y-83282882D02*
X144457143Y-83140025D01*
X144457143Y-83140025D02*
X145028571Y-83140025D01*
X145028571Y-83140025D02*
X145314286Y-83282882D01*
X146742857Y-85140025D02*
X146742857Y-83140025D01*
X146742857Y-82140025D02*
X146600000Y-82282882D01*
X146600000Y-82282882D02*
X146742857Y-82425739D01*
X146742857Y-82425739D02*
X146885714Y-82282882D01*
X146885714Y-82282882D02*
X146742857Y-82140025D01*
X146742857Y-82140025D02*
X146742857Y-82425739D01*
X148171428Y-83140025D02*
X148171428Y-85140025D01*
X148171428Y-83425739D02*
X148314285Y-83282882D01*
X148314285Y-83282882D02*
X148600000Y-83140025D01*
X148600000Y-83140025D02*
X149028571Y-83140025D01*
X149028571Y-83140025D02*
X149314285Y-83282882D01*
X149314285Y-83282882D02*
X149457143Y-83568596D01*
X149457143Y-83568596D02*
X149457143Y-85140025D01*
X152028571Y-84997168D02*
X151742857Y-85140025D01*
X151742857Y-85140025D02*
X151171429Y-85140025D01*
X151171429Y-85140025D02*
X150885714Y-84997168D01*
X150885714Y-84997168D02*
X150742857Y-84711453D01*
X150742857Y-84711453D02*
X150742857Y-83568596D01*
X150742857Y-83568596D02*
X150885714Y-83282882D01*
X150885714Y-83282882D02*
X151171429Y-83140025D01*
X151171429Y-83140025D02*
X151742857Y-83140025D01*
X151742857Y-83140025D02*
X152028571Y-83282882D01*
X152028571Y-83282882D02*
X152171429Y-83568596D01*
X152171429Y-83568596D02*
X152171429Y-83854310D01*
X152171429Y-83854310D02*
X150742857Y-84140025D01*
X155742857Y-85140025D02*
X155742857Y-82140025D01*
X158171428Y-83568596D02*
X157171428Y-83568596D01*
X157171428Y-85140025D02*
X157171428Y-82140025D01*
X157171428Y-82140025D02*
X158600000Y-82140025D01*
X159742857Y-82140025D02*
X159742857Y-84568596D01*
X159742857Y-84568596D02*
X159885714Y-84854310D01*
X159885714Y-84854310D02*
X160028572Y-84997168D01*
X160028572Y-84997168D02*
X160314286Y-85140025D01*
X160314286Y-85140025D02*
X160885714Y-85140025D01*
X160885714Y-85140025D02*
X161171429Y-84997168D01*
X161171429Y-84997168D02*
X161314286Y-84854310D01*
X161314286Y-84854310D02*
X161457143Y-84568596D01*
X161457143Y-84568596D02*
X161457143Y-82140025D01*
X162885714Y-83997168D02*
X165171429Y-83997168D01*
X166314286Y-82140025D02*
X168171429Y-82140025D01*
X168171429Y-82140025D02*
X167171429Y-83282882D01*
X167171429Y-83282882D02*
X167600000Y-83282882D01*
X167600000Y-83282882D02*
X167885715Y-83425739D01*
X167885715Y-83425739D02*
X168028572Y-83568596D01*
X168028572Y-83568596D02*
X168171429Y-83854310D01*
X168171429Y-83854310D02*
X168171429Y-84568596D01*
X168171429Y-84568596D02*
X168028572Y-84854310D01*
X168028572Y-84854310D02*
X167885715Y-84997168D01*
X167885715Y-84997168D02*
X167600000Y-85140025D01*
X167600000Y-85140025D02*
X166742857Y-85140025D01*
X166742857Y-85140025D02*
X166457143Y-84997168D01*
X166457143Y-84997168D02*
X166314286Y-84854310D01*
X170028572Y-82140025D02*
X170314286Y-82140025D01*
X170314286Y-82140025D02*
X170600000Y-82282882D01*
X170600000Y-82282882D02*
X170742858Y-82425739D01*
X170742858Y-82425739D02*
X170885715Y-82711453D01*
X170885715Y-82711453D02*
X171028572Y-83282882D01*
X171028572Y-83282882D02*
X171028572Y-83997168D01*
X171028572Y-83997168D02*
X170885715Y-84568596D01*
X170885715Y-84568596D02*
X170742858Y-84854310D01*
X170742858Y-84854310D02*
X170600000Y-84997168D01*
X170600000Y-84997168D02*
X170314286Y-85140025D01*
X170314286Y-85140025D02*
X170028572Y-85140025D01*
X170028572Y-85140025D02*
X169742858Y-84997168D01*
X169742858Y-84997168D02*
X169600000Y-84854310D01*
X169600000Y-84854310D02*
X169457143Y-84568596D01*
X169457143Y-84568596D02*
X169314286Y-83997168D01*
X169314286Y-83997168D02*
X169314286Y-83282882D01*
X169314286Y-83282882D02*
X169457143Y-82711453D01*
X169457143Y-82711453D02*
X169600000Y-82425739D01*
X169600000Y-82425739D02*
X169742858Y-82282882D01*
X169742858Y-82282882D02*
X170028572Y-82140025D01*
X136671428Y-89827000D02*
X137100000Y-89969857D01*
X137100000Y-89969857D02*
X137814285Y-89969857D01*
X137814285Y-89969857D02*
X138100000Y-89827000D01*
X138100000Y-89827000D02*
X138242857Y-89684142D01*
X138242857Y-89684142D02*
X138385714Y-89398428D01*
X138385714Y-89398428D02*
X138385714Y-89112714D01*
X138385714Y-89112714D02*
X138242857Y-88827000D01*
X138242857Y-88827000D02*
X138100000Y-88684142D01*
X138100000Y-88684142D02*
X137814285Y-88541285D01*
X137814285Y-88541285D02*
X137242857Y-88398428D01*
X137242857Y-88398428D02*
X136957142Y-88255571D01*
X136957142Y-88255571D02*
X136814285Y-88112714D01*
X136814285Y-88112714D02*
X136671428Y-87827000D01*
X136671428Y-87827000D02*
X136671428Y-87541285D01*
X136671428Y-87541285D02*
X136814285Y-87255571D01*
X136814285Y-87255571D02*
X136957142Y-87112714D01*
X136957142Y-87112714D02*
X137242857Y-86969857D01*
X137242857Y-86969857D02*
X137957142Y-86969857D01*
X137957142Y-86969857D02*
X138385714Y-87112714D01*
X141385714Y-89684142D02*
X141242857Y-89827000D01*
X141242857Y-89827000D02*
X140814285Y-89969857D01*
X140814285Y-89969857D02*
X140528571Y-89969857D01*
X140528571Y-89969857D02*
X140100000Y-89827000D01*
X140100000Y-89827000D02*
X139814285Y-89541285D01*
X139814285Y-89541285D02*
X139671428Y-89255571D01*
X139671428Y-89255571D02*
X139528571Y-88684142D01*
X139528571Y-88684142D02*
X139528571Y-88255571D01*
X139528571Y-88255571D02*
X139671428Y-87684142D01*
X139671428Y-87684142D02*
X139814285Y-87398428D01*
X139814285Y-87398428D02*
X140100000Y-87112714D01*
X140100000Y-87112714D02*
X140528571Y-86969857D01*
X140528571Y-86969857D02*
X140814285Y-86969857D01*
X140814285Y-86969857D02*
X141242857Y-87112714D01*
X141242857Y-87112714D02*
X141385714Y-87255571D01*
X142528571Y-89827000D02*
X142957143Y-89969857D01*
X142957143Y-89969857D02*
X143671428Y-89969857D01*
X143671428Y-89969857D02*
X143957143Y-89827000D01*
X143957143Y-89827000D02*
X144100000Y-89684142D01*
X144100000Y-89684142D02*
X144242857Y-89398428D01*
X144242857Y-89398428D02*
X144242857Y-89112714D01*
X144242857Y-89112714D02*
X144100000Y-88827000D01*
X144100000Y-88827000D02*
X143957143Y-88684142D01*
X143957143Y-88684142D02*
X143671428Y-88541285D01*
X143671428Y-88541285D02*
X143100000Y-88398428D01*
X143100000Y-88398428D02*
X142814285Y-88255571D01*
X142814285Y-88255571D02*
X142671428Y-88112714D01*
X142671428Y-88112714D02*
X142528571Y-87827000D01*
X142528571Y-87827000D02*
X142528571Y-87541285D01*
X142528571Y-87541285D02*
X142671428Y-87255571D01*
X142671428Y-87255571D02*
X142814285Y-87112714D01*
X142814285Y-87112714D02*
X143100000Y-86969857D01*
X143100000Y-86969857D02*
X143814285Y-86969857D01*
X143814285Y-86969857D02*
X144242857Y-87112714D01*
X145528571Y-89969857D02*
X145528571Y-86969857D01*
X149242856Y-89969857D02*
X149242856Y-86969857D01*
X149242856Y-86969857D02*
X150242856Y-89112714D01*
X150242856Y-89112714D02*
X151242856Y-86969857D01*
X151242856Y-86969857D02*
X151242856Y-89969857D01*
X153099999Y-89969857D02*
X152814284Y-89827000D01*
X152814284Y-89827000D02*
X152671427Y-89684142D01*
X152671427Y-89684142D02*
X152528570Y-89398428D01*
X152528570Y-89398428D02*
X152528570Y-88541285D01*
X152528570Y-88541285D02*
X152671427Y-88255571D01*
X152671427Y-88255571D02*
X152814284Y-88112714D01*
X152814284Y-88112714D02*
X153099999Y-87969857D01*
X153099999Y-87969857D02*
X153528570Y-87969857D01*
X153528570Y-87969857D02*
X153814284Y-88112714D01*
X153814284Y-88112714D02*
X153957142Y-88255571D01*
X153957142Y-88255571D02*
X154099999Y-88541285D01*
X154099999Y-88541285D02*
X154099999Y-89398428D01*
X154099999Y-89398428D02*
X153957142Y-89684142D01*
X153957142Y-89684142D02*
X153814284Y-89827000D01*
X153814284Y-89827000D02*
X153528570Y-89969857D01*
X153528570Y-89969857D02*
X153099999Y-89969857D01*
X155385713Y-87969857D02*
X155385713Y-89969857D01*
X155385713Y-88255571D02*
X155528570Y-88112714D01*
X155528570Y-88112714D02*
X155814285Y-87969857D01*
X155814285Y-87969857D02*
X156242856Y-87969857D01*
X156242856Y-87969857D02*
X156528570Y-88112714D01*
X156528570Y-88112714D02*
X156671428Y-88398428D01*
X156671428Y-88398428D02*
X156671428Y-89969857D01*
X158099999Y-89969857D02*
X158099999Y-87969857D01*
X158099999Y-86969857D02*
X157957142Y-87112714D01*
X157957142Y-87112714D02*
X158099999Y-87255571D01*
X158099999Y-87255571D02*
X158242856Y-87112714D01*
X158242856Y-87112714D02*
X158099999Y-86969857D01*
X158099999Y-86969857D02*
X158099999Y-87255571D01*
X159099999Y-87969857D02*
X160242856Y-87969857D01*
X159528570Y-86969857D02*
X159528570Y-89541285D01*
X159528570Y-89541285D02*
X159671427Y-89827000D01*
X159671427Y-89827000D02*
X159957142Y-89969857D01*
X159957142Y-89969857D02*
X160242856Y-89969857D01*
X161671428Y-89969857D02*
X161385713Y-89827000D01*
X161385713Y-89827000D02*
X161242856Y-89684142D01*
X161242856Y-89684142D02*
X161099999Y-89398428D01*
X161099999Y-89398428D02*
X161099999Y-88541285D01*
X161099999Y-88541285D02*
X161242856Y-88255571D01*
X161242856Y-88255571D02*
X161385713Y-88112714D01*
X161385713Y-88112714D02*
X161671428Y-87969857D01*
X161671428Y-87969857D02*
X162099999Y-87969857D01*
X162099999Y-87969857D02*
X162385713Y-88112714D01*
X162385713Y-88112714D02*
X162528571Y-88255571D01*
X162528571Y-88255571D02*
X162671428Y-88541285D01*
X162671428Y-88541285D02*
X162671428Y-89398428D01*
X162671428Y-89398428D02*
X162528571Y-89684142D01*
X162528571Y-89684142D02*
X162385713Y-89827000D01*
X162385713Y-89827000D02*
X162099999Y-89969857D01*
X162099999Y-89969857D02*
X161671428Y-89969857D01*
X163957142Y-89969857D02*
X163957142Y-87969857D01*
X163957142Y-88541285D02*
X164099999Y-88255571D01*
X164099999Y-88255571D02*
X164242857Y-88112714D01*
X164242857Y-88112714D02*
X164528571Y-87969857D01*
X164528571Y-87969857D02*
X164814285Y-87969857D01*
D10*
X177595342Y-75220113D02*
X176395342Y-75220113D01*
X176395342Y-75220113D02*
X176395342Y-74762970D01*
X176395342Y-74762970D02*
X176452485Y-74648685D01*
X176452485Y-74648685D02*
X176509628Y-74591542D01*
X176509628Y-74591542D02*
X176623914Y-74534399D01*
X176623914Y-74534399D02*
X176795342Y-74534399D01*
X176795342Y-74534399D02*
X176909628Y-74591542D01*
X176909628Y-74591542D02*
X176966771Y-74648685D01*
X176966771Y-74648685D02*
X177023914Y-74762970D01*
X177023914Y-74762970D02*
X177023914Y-75220113D01*
X177481057Y-73334399D02*
X177538200Y-73391542D01*
X177538200Y-73391542D02*
X177595342Y-73562970D01*
X177595342Y-73562970D02*
X177595342Y-73677256D01*
X177595342Y-73677256D02*
X177538200Y-73848685D01*
X177538200Y-73848685D02*
X177423914Y-73962970D01*
X177423914Y-73962970D02*
X177309628Y-74020113D01*
X177309628Y-74020113D02*
X177081057Y-74077256D01*
X177081057Y-74077256D02*
X176909628Y-74077256D01*
X176909628Y-74077256D02*
X176681057Y-74020113D01*
X176681057Y-74020113D02*
X176566771Y-73962970D01*
X176566771Y-73962970D02*
X176452485Y-73848685D01*
X176452485Y-73848685D02*
X176395342Y-73677256D01*
X176395342Y-73677256D02*
X176395342Y-73562970D01*
X176395342Y-73562970D02*
X176452485Y-73391542D01*
X176452485Y-73391542D02*
X176509628Y-73334399D01*
X177595342Y-72820113D02*
X176395342Y-72820113D01*
X176395342Y-72820113D02*
X177252485Y-72420113D01*
X177252485Y-72420113D02*
X176395342Y-72020113D01*
X176395342Y-72020113D02*
X177595342Y-72020113D01*
X177709628Y-71734399D02*
X177709628Y-70820113D01*
X176966771Y-70134398D02*
X177023914Y-69962970D01*
X177023914Y-69962970D02*
X177081057Y-69905827D01*
X177081057Y-69905827D02*
X177195342Y-69848684D01*
X177195342Y-69848684D02*
X177366771Y-69848684D01*
X177366771Y-69848684D02*
X177481057Y-69905827D01*
X177481057Y-69905827D02*
X177538200Y-69962970D01*
X177538200Y-69962970D02*
X177595342Y-70077255D01*
X177595342Y-70077255D02*
X177595342Y-70534398D01*
X177595342Y-70534398D02*
X176395342Y-70534398D01*
X176395342Y-70534398D02*
X176395342Y-70134398D01*
X176395342Y-70134398D02*
X176452485Y-70020113D01*
X176452485Y-70020113D02*
X176509628Y-69962970D01*
X176509628Y-69962970D02*
X176623914Y-69905827D01*
X176623914Y-69905827D02*
X176738200Y-69905827D01*
X176738200Y-69905827D02*
X176852485Y-69962970D01*
X176852485Y-69962970D02*
X176909628Y-70020113D01*
X176909628Y-70020113D02*
X176966771Y-70134398D01*
X176966771Y-70134398D02*
X176966771Y-70534398D01*
X177481057Y-68648684D02*
X177538200Y-68705827D01*
X177538200Y-68705827D02*
X177595342Y-68877255D01*
X177595342Y-68877255D02*
X177595342Y-68991541D01*
X177595342Y-68991541D02*
X177538200Y-69162970D01*
X177538200Y-69162970D02*
X177423914Y-69277255D01*
X177423914Y-69277255D02*
X177309628Y-69334398D01*
X177309628Y-69334398D02*
X177081057Y-69391541D01*
X177081057Y-69391541D02*
X176909628Y-69391541D01*
X176909628Y-69391541D02*
X176681057Y-69334398D01*
X176681057Y-69334398D02*
X176566771Y-69277255D01*
X176566771Y-69277255D02*
X176452485Y-69162970D01*
X176452485Y-69162970D02*
X176395342Y-68991541D01*
X176395342Y-68991541D02*
X176395342Y-68877255D01*
X176395342Y-68877255D02*
X176452485Y-68705827D01*
X176452485Y-68705827D02*
X176509628Y-68648684D01*
X177595342Y-67562970D02*
X177595342Y-68134398D01*
X177595342Y-68134398D02*
X176395342Y-68134398D01*
X177595342Y-67162969D02*
X176395342Y-67162969D01*
X177595342Y-66477255D02*
X176909628Y-66991541D01*
X176395342Y-66477255D02*
X177081057Y-67162969D01*
X114295342Y-68305826D02*
X113095342Y-68305826D01*
X113095342Y-68305826D02*
X113095342Y-68020112D01*
X113095342Y-68020112D02*
X113152485Y-67848683D01*
X113152485Y-67848683D02*
X113266771Y-67734398D01*
X113266771Y-67734398D02*
X113381057Y-67677255D01*
X113381057Y-67677255D02*
X113609628Y-67620112D01*
X113609628Y-67620112D02*
X113781057Y-67620112D01*
X113781057Y-67620112D02*
X114009628Y-67677255D01*
X114009628Y-67677255D02*
X114123914Y-67734398D01*
X114123914Y-67734398D02*
X114238200Y-67848683D01*
X114238200Y-67848683D02*
X114295342Y-68020112D01*
X114295342Y-68020112D02*
X114295342Y-68305826D01*
X113095342Y-66877255D02*
X113095342Y-66762969D01*
X113095342Y-66762969D02*
X113152485Y-66648683D01*
X113152485Y-66648683D02*
X113209628Y-66591541D01*
X113209628Y-66591541D02*
X113323914Y-66534398D01*
X113323914Y-66534398D02*
X113552485Y-66477255D01*
X113552485Y-66477255D02*
X113838200Y-66477255D01*
X113838200Y-66477255D02*
X114066771Y-66534398D01*
X114066771Y-66534398D02*
X114181057Y-66591541D01*
X114181057Y-66591541D02*
X114238200Y-66648683D01*
X114238200Y-66648683D02*
X114295342Y-66762969D01*
X114295342Y-66762969D02*
X114295342Y-66877255D01*
X114295342Y-66877255D02*
X114238200Y-66991541D01*
X114238200Y-66991541D02*
X114181057Y-67048683D01*
X114181057Y-67048683D02*
X114066771Y-67105826D01*
X114066771Y-67105826D02*
X113838200Y-67162969D01*
X113838200Y-67162969D02*
X113552485Y-67162969D01*
X113552485Y-67162969D02*
X113323914Y-67105826D01*
X113323914Y-67105826D02*
X113209628Y-67048683D01*
X113209628Y-67048683D02*
X113152485Y-66991541D01*
X113152485Y-66991541D02*
X113095342Y-66877255D01*
D11*
G36*
X136903782Y-66822999D02*
G01*
X136903782Y-67009078D01*
X136862672Y-67091298D01*
X136826184Y-67127786D01*
X136743966Y-67168896D01*
X136443600Y-67168896D01*
X136361381Y-67127787D01*
X136324890Y-67091295D01*
X136283782Y-67009079D01*
X136283782Y-66822999D01*
X136306548Y-66777468D01*
X136881016Y-66777468D01*
X136903782Y-66822999D01*
G37*
G36*
X137217115Y-69767943D02*
G01*
X135570449Y-69767943D01*
X135570449Y-68973182D01*
X135703782Y-68973182D01*
X135703782Y-69144610D01*
X135704656Y-69153493D01*
X135704488Y-69155867D01*
X135705197Y-69158987D01*
X135705511Y-69162168D01*
X135706420Y-69164364D01*
X135708401Y-69173070D01*
X135765543Y-69344499D01*
X135772736Y-69360610D01*
X135774855Y-69363053D01*
X135776093Y-69366041D01*
X135787286Y-69379679D01*
X135901572Y-69493964D01*
X135908473Y-69499628D01*
X135910031Y-69501424D01*
X135912736Y-69503126D01*
X135915210Y-69505157D01*
X135917408Y-69506067D01*
X135924962Y-69510822D01*
X136039248Y-69567966D01*
X136040532Y-69568457D01*
X136041054Y-69568844D01*
X136048425Y-69571477D01*
X136055726Y-69574271D01*
X136056372Y-69574316D01*
X136057669Y-69574780D01*
X136286240Y-69631923D01*
X136289284Y-69632373D01*
X136290510Y-69632881D01*
X136297118Y-69633531D01*
X136303693Y-69634504D01*
X136305006Y-69634308D01*
X136308068Y-69634610D01*
X136479497Y-69634610D01*
X136482558Y-69634308D01*
X136483872Y-69634504D01*
X136490446Y-69633531D01*
X136497055Y-69632881D01*
X136498280Y-69632373D01*
X136501325Y-69631923D01*
X136729897Y-69574780D01*
X136731192Y-69574316D01*
X136731840Y-69574271D01*
X136739124Y-69571483D01*
X136746511Y-69568844D01*
X136747035Y-69568455D01*
X136748317Y-69567965D01*
X136862604Y-69510822D01*
X136870159Y-69506066D01*
X136872355Y-69505157D01*
X136874825Y-69503129D01*
X136877535Y-69501424D01*
X136879094Y-69499625D01*
X136885993Y-69493964D01*
X137000279Y-69379679D01*
X137011472Y-69366041D01*
X137012709Y-69363052D01*
X137014829Y-69360609D01*
X137022022Y-69344499D01*
X137079164Y-69173070D01*
X137081144Y-69164362D01*
X137082053Y-69162168D01*
X137082366Y-69158987D01*
X137083076Y-69155866D01*
X137082907Y-69153492D01*
X137083782Y-69144610D01*
X137083782Y-69030324D01*
X137082907Y-69021441D01*
X137083076Y-69019068D01*
X137082366Y-69015946D01*
X137082053Y-69012766D01*
X137081144Y-69010571D01*
X137079164Y-69001864D01*
X137022022Y-68830436D01*
X137014829Y-68814326D01*
X137012709Y-68811882D01*
X137011472Y-68808894D01*
X137000279Y-68795256D01*
X136943137Y-68738113D01*
X136929499Y-68726921D01*
X136919996Y-68722984D01*
X136897055Y-68713482D01*
X136879497Y-68711753D01*
X136479497Y-68711753D01*
X136461939Y-68713482D01*
X136429496Y-68726921D01*
X136404665Y-68751752D01*
X136391226Y-68784195D01*
X136389497Y-68801753D01*
X136389497Y-69030324D01*
X136391226Y-69047882D01*
X136404665Y-69080325D01*
X136429496Y-69105156D01*
X136461939Y-69118595D01*
X136497055Y-69118595D01*
X136529498Y-69105156D01*
X136554329Y-69080325D01*
X136567768Y-69047882D01*
X136569497Y-69030324D01*
X136569497Y-68891753D01*
X136842217Y-68891753D01*
X136857976Y-68907511D01*
X136903782Y-69044929D01*
X136903782Y-69130004D01*
X136857976Y-69267423D01*
X136769042Y-69356356D01*
X136676657Y-69402549D01*
X136468417Y-69454610D01*
X136319149Y-69454610D01*
X136110908Y-69402549D01*
X136018523Y-69356357D01*
X135929587Y-69267422D01*
X135883782Y-69130006D01*
X135883782Y-68994427D01*
X135931424Y-68899145D01*
X135937729Y-68882667D01*
X135940218Y-68847639D01*
X135929113Y-68814325D01*
X135906106Y-68787796D01*
X135874697Y-68772092D01*
X135839669Y-68769603D01*
X135806355Y-68780708D01*
X135779825Y-68803715D01*
X135770427Y-68818646D01*
X135713284Y-68932933D01*
X135706978Y-68949410D01*
X135706748Y-68952635D01*
X135705511Y-68955624D01*
X135703782Y-68973182D01*
X135570449Y-68973182D01*
X135570449Y-67944610D01*
X136103782Y-67944610D01*
X136103782Y-68116039D01*
X136105511Y-68133597D01*
X136106748Y-68136585D01*
X136106978Y-68139811D01*
X136113284Y-68156289D01*
X136142231Y-68214184D01*
X136118950Y-68237466D01*
X136105511Y-68269909D01*
X136105511Y-68305025D01*
X136118950Y-68337468D01*
X136143781Y-68362299D01*
X136176224Y-68375738D01*
X136193782Y-68377467D01*
X136993782Y-68377467D01*
X137011340Y-68375738D01*
X137043783Y-68362299D01*
X137068614Y-68337468D01*
X137082053Y-68305025D01*
X137082053Y-68269909D01*
X137068614Y-68237466D01*
X137043783Y-68212635D01*
X137011340Y-68199196D01*
X136993782Y-68197467D01*
X136345347Y-68197467D01*
X136324890Y-68177009D01*
X136283782Y-68094793D01*
X136283782Y-67965855D01*
X136318006Y-67897406D01*
X136386457Y-67863182D01*
X136993782Y-67863182D01*
X137011340Y-67861453D01*
X137043783Y-67848014D01*
X137068614Y-67823183D01*
X137082053Y-67790740D01*
X137082053Y-67755624D01*
X137068614Y-67723181D01*
X137043783Y-67698350D01*
X137011340Y-67684911D01*
X136993782Y-67683182D01*
X136365211Y-67683182D01*
X136347653Y-67684911D01*
X136344664Y-67686148D01*
X136341440Y-67686378D01*
X136324962Y-67692683D01*
X136210676Y-67749825D01*
X136207736Y-67751675D01*
X136206355Y-67752136D01*
X136204634Y-67753628D01*
X136195745Y-67759224D01*
X136188352Y-67767748D01*
X136179825Y-67775143D01*
X136174231Y-67784030D01*
X136172737Y-67785753D01*
X136172275Y-67787136D01*
X136170427Y-67790074D01*
X136113284Y-67904361D01*
X136106978Y-67920838D01*
X136106748Y-67924063D01*
X136105511Y-67927052D01*
X136103782Y-67944610D01*
X135570449Y-67944610D01*
X135570449Y-66669910D01*
X135705511Y-66669910D01*
X135705511Y-66705026D01*
X135718950Y-66737469D01*
X135743781Y-66762300D01*
X135776224Y-66775739D01*
X135793782Y-66777468D01*
X136107174Y-66777468D01*
X136106978Y-66777981D01*
X136106748Y-66781206D01*
X136105511Y-66784195D01*
X136103782Y-66801753D01*
X136103782Y-67030325D01*
X136105511Y-67047883D01*
X136106748Y-67050871D01*
X136106978Y-67054097D01*
X136113284Y-67070575D01*
X136170427Y-67184860D01*
X136175183Y-67192415D01*
X136176093Y-67194612D01*
X136178122Y-67197085D01*
X136179826Y-67199791D01*
X136181619Y-67201346D01*
X136187285Y-67208250D01*
X136244428Y-67265392D01*
X136251330Y-67271056D01*
X136252888Y-67272853D01*
X136255594Y-67274556D01*
X136258066Y-67276585D01*
X136260262Y-67277494D01*
X136267819Y-67282251D01*
X136382105Y-67339395D01*
X136398583Y-67345700D01*
X136401807Y-67345929D01*
X136404796Y-67347167D01*
X136422354Y-67348896D01*
X136765211Y-67348896D01*
X136782769Y-67347167D01*
X136785757Y-67345929D01*
X136788983Y-67345700D01*
X136805460Y-67339394D01*
X136919747Y-67282251D01*
X136927305Y-67277493D01*
X136929499Y-67276585D01*
X136931968Y-67274558D01*
X136934678Y-67272853D01*
X136936236Y-67271055D01*
X136943137Y-67265393D01*
X137000279Y-67208250D01*
X137005943Y-67201347D01*
X137007740Y-67199790D01*
X137009444Y-67197082D01*
X137011472Y-67194612D01*
X137012380Y-67192417D01*
X137017139Y-67184859D01*
X137074280Y-67070574D01*
X137080586Y-67054097D01*
X137080815Y-67050871D01*
X137082053Y-67047883D01*
X137083782Y-67030325D01*
X137083782Y-66801753D01*
X137082053Y-66784195D01*
X137080815Y-66781206D01*
X137080586Y-66777981D01*
X137074280Y-66761504D01*
X137064379Y-66741703D01*
X137068614Y-66737469D01*
X137082053Y-66705026D01*
X137082053Y-66669910D01*
X137068614Y-66637467D01*
X137043783Y-66612636D01*
X137011340Y-66599197D01*
X136993782Y-66597468D01*
X135793782Y-66597468D01*
X135776224Y-66599197D01*
X135743781Y-66612636D01*
X135718950Y-66637467D01*
X135705511Y-66669910D01*
X135570449Y-66669910D01*
X135570449Y-66464135D01*
X137217115Y-66464135D01*
X137217115Y-69767943D01*
G37*
D10*
X131452485Y-72762969D02*
X131452485Y-72191541D01*
X131795342Y-72877255D02*
X130595342Y-72477255D01*
X130595342Y-72477255D02*
X131795342Y-72077255D01*
X130995342Y-71162970D02*
X131795342Y-71162970D01*
X130995342Y-71677255D02*
X131623914Y-71677255D01*
X131623914Y-71677255D02*
X131738200Y-71620112D01*
X131738200Y-71620112D02*
X131795342Y-71505827D01*
X131795342Y-71505827D02*
X131795342Y-71334398D01*
X131795342Y-71334398D02*
X131738200Y-71220112D01*
X131738200Y-71220112D02*
X131681057Y-71162970D01*
X131795342Y-70077256D02*
X130595342Y-70077256D01*
X131738200Y-70077256D02*
X131795342Y-70191541D01*
X131795342Y-70191541D02*
X131795342Y-70420113D01*
X131795342Y-70420113D02*
X131738200Y-70534398D01*
X131738200Y-70534398D02*
X131681057Y-70591541D01*
X131681057Y-70591541D02*
X131566771Y-70648684D01*
X131566771Y-70648684D02*
X131223914Y-70648684D01*
X131223914Y-70648684D02*
X131109628Y-70591541D01*
X131109628Y-70591541D02*
X131052485Y-70534398D01*
X131052485Y-70534398D02*
X130995342Y-70420113D01*
X130995342Y-70420113D02*
X130995342Y-70191541D01*
X130995342Y-70191541D02*
X131052485Y-70077256D01*
X131795342Y-69505827D02*
X130995342Y-69505827D01*
X130595342Y-69505827D02*
X130652485Y-69562970D01*
X130652485Y-69562970D02*
X130709628Y-69505827D01*
X130709628Y-69505827D02*
X130652485Y-69448684D01*
X130652485Y-69448684D02*
X130595342Y-69505827D01*
X130595342Y-69505827D02*
X130709628Y-69505827D01*
X131795342Y-68762970D02*
X131738200Y-68877255D01*
X131738200Y-68877255D02*
X131681057Y-68934398D01*
X131681057Y-68934398D02*
X131566771Y-68991541D01*
X131566771Y-68991541D02*
X131223914Y-68991541D01*
X131223914Y-68991541D02*
X131109628Y-68934398D01*
X131109628Y-68934398D02*
X131052485Y-68877255D01*
X131052485Y-68877255D02*
X130995342Y-68762970D01*
X130995342Y-68762970D02*
X130995342Y-68591541D01*
X130995342Y-68591541D02*
X131052485Y-68477255D01*
X131052485Y-68477255D02*
X131109628Y-68420113D01*
X131109628Y-68420113D02*
X131223914Y-68362970D01*
X131223914Y-68362970D02*
X131566771Y-68362970D01*
X131566771Y-68362970D02*
X131681057Y-68420113D01*
X131681057Y-68420113D02*
X131738200Y-68477255D01*
X131738200Y-68477255D02*
X131795342Y-68591541D01*
X131795342Y-68591541D02*
X131795342Y-68762970D01*
X131795342Y-66362970D02*
X131795342Y-66934398D01*
X131795342Y-66934398D02*
X130595342Y-66934398D01*
X157338200Y-74362969D02*
X157395342Y-74191541D01*
X157395342Y-74191541D02*
X157395342Y-73905826D01*
X157395342Y-73905826D02*
X157338200Y-73791541D01*
X157338200Y-73791541D02*
X157281057Y-73734398D01*
X157281057Y-73734398D02*
X157166771Y-73677255D01*
X157166771Y-73677255D02*
X157052485Y-73677255D01*
X157052485Y-73677255D02*
X156938200Y-73734398D01*
X156938200Y-73734398D02*
X156881057Y-73791541D01*
X156881057Y-73791541D02*
X156823914Y-73905826D01*
X156823914Y-73905826D02*
X156766771Y-74134398D01*
X156766771Y-74134398D02*
X156709628Y-74248683D01*
X156709628Y-74248683D02*
X156652485Y-74305826D01*
X156652485Y-74305826D02*
X156538200Y-74362969D01*
X156538200Y-74362969D02*
X156423914Y-74362969D01*
X156423914Y-74362969D02*
X156309628Y-74305826D01*
X156309628Y-74305826D02*
X156252485Y-74248683D01*
X156252485Y-74248683D02*
X156195342Y-74134398D01*
X156195342Y-74134398D02*
X156195342Y-73848683D01*
X156195342Y-73848683D02*
X156252485Y-73677255D01*
X157281057Y-72477255D02*
X157338200Y-72534398D01*
X157338200Y-72534398D02*
X157395342Y-72705826D01*
X157395342Y-72705826D02*
X157395342Y-72820112D01*
X157395342Y-72820112D02*
X157338200Y-72991541D01*
X157338200Y-72991541D02*
X157223914Y-73105826D01*
X157223914Y-73105826D02*
X157109628Y-73162969D01*
X157109628Y-73162969D02*
X156881057Y-73220112D01*
X156881057Y-73220112D02*
X156709628Y-73220112D01*
X156709628Y-73220112D02*
X156481057Y-73162969D01*
X156481057Y-73162969D02*
X156366771Y-73105826D01*
X156366771Y-73105826D02*
X156252485Y-72991541D01*
X156252485Y-72991541D02*
X156195342Y-72820112D01*
X156195342Y-72820112D02*
X156195342Y-72705826D01*
X156195342Y-72705826D02*
X156252485Y-72534398D01*
X156252485Y-72534398D02*
X156309628Y-72477255D01*
X157338200Y-72020112D02*
X157395342Y-71848684D01*
X157395342Y-71848684D02*
X157395342Y-71562969D01*
X157395342Y-71562969D02*
X157338200Y-71448684D01*
X157338200Y-71448684D02*
X157281057Y-71391541D01*
X157281057Y-71391541D02*
X157166771Y-71334398D01*
X157166771Y-71334398D02*
X157052485Y-71334398D01*
X157052485Y-71334398D02*
X156938200Y-71391541D01*
X156938200Y-71391541D02*
X156881057Y-71448684D01*
X156881057Y-71448684D02*
X156823914Y-71562969D01*
X156823914Y-71562969D02*
X156766771Y-71791541D01*
X156766771Y-71791541D02*
X156709628Y-71905826D01*
X156709628Y-71905826D02*
X156652485Y-71962969D01*
X156652485Y-71962969D02*
X156538200Y-72020112D01*
X156538200Y-72020112D02*
X156423914Y-72020112D01*
X156423914Y-72020112D02*
X156309628Y-71962969D01*
X156309628Y-71962969D02*
X156252485Y-71905826D01*
X156252485Y-71905826D02*
X156195342Y-71791541D01*
X156195342Y-71791541D02*
X156195342Y-71505826D01*
X156195342Y-71505826D02*
X156252485Y-71334398D01*
X157395342Y-70820112D02*
X156195342Y-70820112D01*
X157509628Y-70534398D02*
X157509628Y-69620112D01*
X156766771Y-68934397D02*
X156823914Y-68762969D01*
X156823914Y-68762969D02*
X156881057Y-68705826D01*
X156881057Y-68705826D02*
X156995342Y-68648683D01*
X156995342Y-68648683D02*
X157166771Y-68648683D01*
X157166771Y-68648683D02*
X157281057Y-68705826D01*
X157281057Y-68705826D02*
X157338200Y-68762969D01*
X157338200Y-68762969D02*
X157395342Y-68877254D01*
X157395342Y-68877254D02*
X157395342Y-69334397D01*
X157395342Y-69334397D02*
X156195342Y-69334397D01*
X156195342Y-69334397D02*
X156195342Y-68934397D01*
X156195342Y-68934397D02*
X156252485Y-68820112D01*
X156252485Y-68820112D02*
X156309628Y-68762969D01*
X156309628Y-68762969D02*
X156423914Y-68705826D01*
X156423914Y-68705826D02*
X156538200Y-68705826D01*
X156538200Y-68705826D02*
X156652485Y-68762969D01*
X156652485Y-68762969D02*
X156709628Y-68820112D01*
X156709628Y-68820112D02*
X156766771Y-68934397D01*
X156766771Y-68934397D02*
X156766771Y-69334397D01*
X157338200Y-68191540D02*
X157395342Y-68020112D01*
X157395342Y-68020112D02*
X157395342Y-67734397D01*
X157395342Y-67734397D02*
X157338200Y-67620112D01*
X157338200Y-67620112D02*
X157281057Y-67562969D01*
X157281057Y-67562969D02*
X157166771Y-67505826D01*
X157166771Y-67505826D02*
X157052485Y-67505826D01*
X157052485Y-67505826D02*
X156938200Y-67562969D01*
X156938200Y-67562969D02*
X156881057Y-67620112D01*
X156881057Y-67620112D02*
X156823914Y-67734397D01*
X156823914Y-67734397D02*
X156766771Y-67962969D01*
X156766771Y-67962969D02*
X156709628Y-68077254D01*
X156709628Y-68077254D02*
X156652485Y-68134397D01*
X156652485Y-68134397D02*
X156538200Y-68191540D01*
X156538200Y-68191540D02*
X156423914Y-68191540D01*
X156423914Y-68191540D02*
X156309628Y-68134397D01*
X156309628Y-68134397D02*
X156252485Y-68077254D01*
X156252485Y-68077254D02*
X156195342Y-67962969D01*
X156195342Y-67962969D02*
X156195342Y-67677254D01*
X156195342Y-67677254D02*
X156252485Y-67505826D01*
X156823914Y-66762969D02*
X157395342Y-66762969D01*
X156195342Y-67162969D02*
X156823914Y-66762969D01*
X156823914Y-66762969D02*
X156195342Y-66362969D01*
X155862200Y-74471541D02*
X155862200Y-66368684D01*
X149645342Y-75220113D02*
X148445342Y-75220113D01*
X148445342Y-75220113D02*
X148445342Y-74762970D01*
X148445342Y-74762970D02*
X148502485Y-74648685D01*
X148502485Y-74648685D02*
X148559628Y-74591542D01*
X148559628Y-74591542D02*
X148673914Y-74534399D01*
X148673914Y-74534399D02*
X148845342Y-74534399D01*
X148845342Y-74534399D02*
X148959628Y-74591542D01*
X148959628Y-74591542D02*
X149016771Y-74648685D01*
X149016771Y-74648685D02*
X149073914Y-74762970D01*
X149073914Y-74762970D02*
X149073914Y-75220113D01*
X149531057Y-73334399D02*
X149588200Y-73391542D01*
X149588200Y-73391542D02*
X149645342Y-73562970D01*
X149645342Y-73562970D02*
X149645342Y-73677256D01*
X149645342Y-73677256D02*
X149588200Y-73848685D01*
X149588200Y-73848685D02*
X149473914Y-73962970D01*
X149473914Y-73962970D02*
X149359628Y-74020113D01*
X149359628Y-74020113D02*
X149131057Y-74077256D01*
X149131057Y-74077256D02*
X148959628Y-74077256D01*
X148959628Y-74077256D02*
X148731057Y-74020113D01*
X148731057Y-74020113D02*
X148616771Y-73962970D01*
X148616771Y-73962970D02*
X148502485Y-73848685D01*
X148502485Y-73848685D02*
X148445342Y-73677256D01*
X148445342Y-73677256D02*
X148445342Y-73562970D01*
X148445342Y-73562970D02*
X148502485Y-73391542D01*
X148502485Y-73391542D02*
X148559628Y-73334399D01*
X149645342Y-72820113D02*
X148445342Y-72820113D01*
X148445342Y-72820113D02*
X149302485Y-72420113D01*
X149302485Y-72420113D02*
X148445342Y-72020113D01*
X148445342Y-72020113D02*
X149645342Y-72020113D01*
X149759628Y-71734399D02*
X149759628Y-70820113D01*
X149645342Y-69962970D02*
X149645342Y-70534398D01*
X149645342Y-70534398D02*
X148445342Y-70534398D01*
X149645342Y-68877255D02*
X149073914Y-69277255D01*
X149645342Y-69562969D02*
X148445342Y-69562969D01*
X148445342Y-69562969D02*
X148445342Y-69105826D01*
X148445342Y-69105826D02*
X148502485Y-68991541D01*
X148502485Y-68991541D02*
X148559628Y-68934398D01*
X148559628Y-68934398D02*
X148673914Y-68877255D01*
X148673914Y-68877255D02*
X148845342Y-68877255D01*
X148845342Y-68877255D02*
X148959628Y-68934398D01*
X148959628Y-68934398D02*
X149016771Y-68991541D01*
X149016771Y-68991541D02*
X149073914Y-69105826D01*
X149073914Y-69105826D02*
X149073914Y-69562969D01*
X149531057Y-67677255D02*
X149588200Y-67734398D01*
X149588200Y-67734398D02*
X149645342Y-67905826D01*
X149645342Y-67905826D02*
X149645342Y-68020112D01*
X149645342Y-68020112D02*
X149588200Y-68191541D01*
X149588200Y-68191541D02*
X149473914Y-68305826D01*
X149473914Y-68305826D02*
X149359628Y-68362969D01*
X149359628Y-68362969D02*
X149131057Y-68420112D01*
X149131057Y-68420112D02*
X148959628Y-68420112D01*
X148959628Y-68420112D02*
X148731057Y-68362969D01*
X148731057Y-68362969D02*
X148616771Y-68305826D01*
X148616771Y-68305826D02*
X148502485Y-68191541D01*
X148502485Y-68191541D02*
X148445342Y-68020112D01*
X148445342Y-68020112D02*
X148445342Y-67905826D01*
X148445342Y-67905826D02*
X148502485Y-67734398D01*
X148502485Y-67734398D02*
X148559628Y-67677255D01*
X149645342Y-67162969D02*
X148445342Y-67162969D01*
X149645342Y-66477255D02*
X148959628Y-66991541D01*
X148445342Y-66477255D02*
X149131057Y-67162969D01*
X182838200Y-74534398D02*
X182895342Y-74362970D01*
X182895342Y-74362970D02*
X182895342Y-74077255D01*
X182895342Y-74077255D02*
X182838200Y-73962970D01*
X182838200Y-73962970D02*
X182781057Y-73905827D01*
X182781057Y-73905827D02*
X182666771Y-73848684D01*
X182666771Y-73848684D02*
X182552485Y-73848684D01*
X182552485Y-73848684D02*
X182438200Y-73905827D01*
X182438200Y-73905827D02*
X182381057Y-73962970D01*
X182381057Y-73962970D02*
X182323914Y-74077255D01*
X182323914Y-74077255D02*
X182266771Y-74305827D01*
X182266771Y-74305827D02*
X182209628Y-74420112D01*
X182209628Y-74420112D02*
X182152485Y-74477255D01*
X182152485Y-74477255D02*
X182038200Y-74534398D01*
X182038200Y-74534398D02*
X181923914Y-74534398D01*
X181923914Y-74534398D02*
X181809628Y-74477255D01*
X181809628Y-74477255D02*
X181752485Y-74420112D01*
X181752485Y-74420112D02*
X181695342Y-74305827D01*
X181695342Y-74305827D02*
X181695342Y-74020112D01*
X181695342Y-74020112D02*
X181752485Y-73848684D01*
X182781057Y-72648684D02*
X182838200Y-72705827D01*
X182838200Y-72705827D02*
X182895342Y-72877255D01*
X182895342Y-72877255D02*
X182895342Y-72991541D01*
X182895342Y-72991541D02*
X182838200Y-73162970D01*
X182838200Y-73162970D02*
X182723914Y-73277255D01*
X182723914Y-73277255D02*
X182609628Y-73334398D01*
X182609628Y-73334398D02*
X182381057Y-73391541D01*
X182381057Y-73391541D02*
X182209628Y-73391541D01*
X182209628Y-73391541D02*
X181981057Y-73334398D01*
X181981057Y-73334398D02*
X181866771Y-73277255D01*
X181866771Y-73277255D02*
X181752485Y-73162970D01*
X181752485Y-73162970D02*
X181695342Y-72991541D01*
X181695342Y-72991541D02*
X181695342Y-72877255D01*
X181695342Y-72877255D02*
X181752485Y-72705827D01*
X181752485Y-72705827D02*
X181809628Y-72648684D01*
X182838200Y-72191541D02*
X182895342Y-72020113D01*
X182895342Y-72020113D02*
X182895342Y-71734398D01*
X182895342Y-71734398D02*
X182838200Y-71620113D01*
X182838200Y-71620113D02*
X182781057Y-71562970D01*
X182781057Y-71562970D02*
X182666771Y-71505827D01*
X182666771Y-71505827D02*
X182552485Y-71505827D01*
X182552485Y-71505827D02*
X182438200Y-71562970D01*
X182438200Y-71562970D02*
X182381057Y-71620113D01*
X182381057Y-71620113D02*
X182323914Y-71734398D01*
X182323914Y-71734398D02*
X182266771Y-71962970D01*
X182266771Y-71962970D02*
X182209628Y-72077255D01*
X182209628Y-72077255D02*
X182152485Y-72134398D01*
X182152485Y-72134398D02*
X182038200Y-72191541D01*
X182038200Y-72191541D02*
X181923914Y-72191541D01*
X181923914Y-72191541D02*
X181809628Y-72134398D01*
X181809628Y-72134398D02*
X181752485Y-72077255D01*
X181752485Y-72077255D02*
X181695342Y-71962970D01*
X181695342Y-71962970D02*
X181695342Y-71677255D01*
X181695342Y-71677255D02*
X181752485Y-71505827D01*
X182895342Y-70991541D02*
X181695342Y-70991541D01*
X183009628Y-70705827D02*
X183009628Y-69791541D01*
X182895342Y-68820112D02*
X182323914Y-69220112D01*
X182895342Y-69505826D02*
X181695342Y-69505826D01*
X181695342Y-69505826D02*
X181695342Y-69048683D01*
X181695342Y-69048683D02*
X181752485Y-68934398D01*
X181752485Y-68934398D02*
X181809628Y-68877255D01*
X181809628Y-68877255D02*
X181923914Y-68820112D01*
X181923914Y-68820112D02*
X182095342Y-68820112D01*
X182095342Y-68820112D02*
X182209628Y-68877255D01*
X182209628Y-68877255D02*
X182266771Y-68934398D01*
X182266771Y-68934398D02*
X182323914Y-69048683D01*
X182323914Y-69048683D02*
X182323914Y-69505826D01*
X182266771Y-68305826D02*
X182266771Y-67905826D01*
X182895342Y-67734398D02*
X182895342Y-68305826D01*
X182895342Y-68305826D02*
X181695342Y-68305826D01*
X181695342Y-68305826D02*
X181695342Y-67734398D01*
X183009628Y-66420112D02*
X182952485Y-66534398D01*
X182952485Y-66534398D02*
X182838200Y-66648684D01*
X182838200Y-66648684D02*
X182666771Y-66820112D01*
X182666771Y-66820112D02*
X182609628Y-66934398D01*
X182609628Y-66934398D02*
X182609628Y-67048684D01*
X182895342Y-66991541D02*
X182838200Y-67105827D01*
X182838200Y-67105827D02*
X182723914Y-67220112D01*
X182723914Y-67220112D02*
X182495342Y-67277255D01*
X182495342Y-67277255D02*
X182095342Y-67277255D01*
X182095342Y-67277255D02*
X181866771Y-67220112D01*
X181866771Y-67220112D02*
X181752485Y-67105827D01*
X181752485Y-67105827D02*
X181695342Y-66991541D01*
X181695342Y-66991541D02*
X181695342Y-66762969D01*
X181695342Y-66762969D02*
X181752485Y-66648684D01*
X181752485Y-66648684D02*
X181866771Y-66534398D01*
X181866771Y-66534398D02*
X182095342Y-66477255D01*
X182095342Y-66477255D02*
X182495342Y-66477255D01*
X182495342Y-66477255D02*
X182723914Y-66534398D01*
X182723914Y-66534398D02*
X182838200Y-66648684D01*
X182838200Y-66648684D02*
X182895342Y-66762969D01*
X182895342Y-66762969D02*
X182895342Y-66991541D01*
X181362200Y-74642970D02*
X181362200Y-66368684D01*
D13*
X149366666Y-156307419D02*
X149366666Y-157021704D01*
X149366666Y-157021704D02*
X149319047Y-157164561D01*
X149319047Y-157164561D02*
X149223809Y-157259800D01*
X149223809Y-157259800D02*
X149080952Y-157307419D01*
X149080952Y-157307419D02*
X148985714Y-157307419D01*
X149795238Y-156402657D02*
X149842857Y-156355038D01*
X149842857Y-156355038D02*
X149938095Y-156307419D01*
X149938095Y-156307419D02*
X150176190Y-156307419D01*
X150176190Y-156307419D02*
X150271428Y-156355038D01*
X150271428Y-156355038D02*
X150319047Y-156402657D01*
X150319047Y-156402657D02*
X150366666Y-156497895D01*
X150366666Y-156497895D02*
X150366666Y-156593133D01*
X150366666Y-156593133D02*
X150319047Y-156735990D01*
X150319047Y-156735990D02*
X149747619Y-157307419D01*
X149747619Y-157307419D02*
X150366666Y-157307419D01*
D10*
X110654819Y-64028333D02*
X111369104Y-64028333D01*
X111369104Y-64028333D02*
X111511961Y-64075952D01*
X111511961Y-64075952D02*
X111607200Y-64171190D01*
X111607200Y-64171190D02*
X111654819Y-64314047D01*
X111654819Y-64314047D02*
X111654819Y-64409285D01*
X111654819Y-63028333D02*
X111654819Y-63599761D01*
X111654819Y-63314047D02*
X110654819Y-63314047D01*
X110654819Y-63314047D02*
X110797676Y-63409285D01*
X110797676Y-63409285D02*
X110892914Y-63504523D01*
X110892914Y-63504523D02*
X110940533Y-63599761D01*
D14*
G04 #@! TO.C,J1*
X112200000Y-65075000D02*
X112200000Y-63695000D01*
X113580000Y-65075000D02*
X112200000Y-65075000D01*
X114850000Y-62315000D02*
X188620000Y-62315000D01*
X114850000Y-65075000D02*
X114850000Y-62315000D01*
X114850000Y-65075000D02*
X188620000Y-65075000D01*
X188620000Y-65075000D02*
X188620000Y-62315000D01*
G04 #@! TD*
%LPC*%
D15*
G04 #@! TO.C,J2*
X139700000Y-150285000D03*
X139700000Y-154095000D03*
X140950000Y-152190000D03*
X140950000Y-156000000D03*
X142200000Y-150285000D03*
X142200000Y-154095000D03*
X143450000Y-152190000D03*
X143450000Y-156000000D03*
X144700000Y-150285000D03*
X144700000Y-154095000D03*
X145950000Y-152190000D03*
X145950000Y-156000000D03*
X147200000Y-150285000D03*
X147200000Y-154095000D03*
X148450000Y-152190000D03*
X148450000Y-156000000D03*
X149700000Y-150285000D03*
X149700000Y-154095000D03*
X150950000Y-152190000D03*
X150950000Y-156000000D03*
X152200000Y-150285000D03*
X152200000Y-154095000D03*
X153450000Y-152190000D03*
X153450000Y-156000000D03*
X154700000Y-150285000D03*
X154700000Y-154095000D03*
X155950000Y-152190000D03*
X155950000Y-156000000D03*
X157200000Y-150285000D03*
X157200000Y-154095000D03*
G04 #@! TD*
D16*
G04 #@! TO.C,J1*
X113580000Y-63695000D03*
D17*
X116120000Y-63695000D03*
X118660000Y-63695000D03*
X121200000Y-63695000D03*
X123740000Y-63695000D03*
X126280000Y-63695000D03*
X128820000Y-63695000D03*
X131360000Y-63695000D03*
X133900000Y-63695000D03*
X136440000Y-63695000D03*
X138980000Y-63695000D03*
X141520000Y-63695000D03*
X144060000Y-63695000D03*
X146600000Y-63695000D03*
X149140000Y-63695000D03*
X151680000Y-63695000D03*
X154220000Y-63695000D03*
X156760000Y-63695000D03*
X159300000Y-63695000D03*
X161840000Y-63695000D03*
X164380000Y-63695000D03*
X166920000Y-63695000D03*
X169460000Y-63695000D03*
X172000000Y-63695000D03*
X174540000Y-63695000D03*
X177080000Y-63695000D03*
X179620000Y-63695000D03*
X182160000Y-63695000D03*
X184700000Y-63695000D03*
X187240000Y-63695000D03*
G04 #@! TD*
%LPD*%
M02*
